<?xml version="1.0" encoding="UTF-8"?>
<svg version="1.1" xmlns="http://www.w3.org/2000/svg" width="1585" height="1600">
<path d="M0 0 C523.05 0 1046.1 0 1585 0 C1585 528 1585 1056 1585 1600 C1061.95 1600 538.9 1600 0 1600 C0 1072 0 544 0 0 Z " fill="#FCFDFE" transform="translate(0,0)"/>
<path d="M0 0 C0.04898438 1.24394531 0.09796875 2.48789062 0.1484375 3.76953125 C1.29423678 30.37723931 8.05408681 52.19538364 25 73 C25.42732422 73.53415527 25.85464844 74.06831055 26.29492188 74.61865234 C37.90578113 89.06481939 51.48669472 101.40605474 66.20361328 112.61083984 C69.52093752 115.17615309 72.7551267 117.84408014 76 120.5 C81.01901452 124.59972589 86.07453288 128.64316335 91.1875 132.625 C102.61054775 141.55252639 113.4766342 151.03049556 124 161 C124.51449707 161.48049805 125.02899414 161.96099609 125.55908203 162.45605469 C140.50432416 176.46692275 153.31687852 193.7064736 158 214 C157.37996094 213.5875 156.75992188 213.175 156.12109375 212.75 C130.84238523 196.26548556 104.61803627 189.36976635 75.09619141 184.515625 C51.98848198 180.71483245 29.0580204 176.78100524 8 166 C6.98969727 165.48566406 6.98969727 165.48566406 5.95898438 164.9609375 C-3.19146528 160.22823982 -11.34206515 154.96175896 -19 148 C-19.64195313 147.42765625 -20.28390625 146.8553125 -20.9453125 146.265625 C-35.94126004 132.14388068 -45.32941402 112.07314484 -46.33984375 91.5625 C-47.06642851 65.06728969 -38.65323626 39.10408798 -21 19 C-20.14277344 18.02289062 -19.28554687 17.04578125 -18.40234375 16.0390625 C-4.10482134 0 -4.10482134 0 0 0 Z " fill="#529ACE" transform="translate(131,719)"/>
<path d="M0 0 C2.52315994 2.21396788 4.91071351 4.50309122 7.26953125 6.890625 C7.91792969 7.51710938 8.56632813 8.14359375 9.234375 8.7890625 C19.23348681 19.16013252 22.63010038 32.78712319 22.58203125 46.765625 C22.59814453 47.69503906 22.61425781 48.62445312 22.63085938 49.58203125 C22.64171489 65.14884409 15.54254224 78.32872238 4.89208984 89.36279297 C-6.60359068 100.18734438 -20.08081062 104.06657746 -35.54296875 104.078125 C-36.39439453 104.09037109 -37.24582031 104.10261719 -38.12304688 104.11523438 C-53.73464877 104.15090445 -66.60441792 97.79449663 -77.73046875 86.890625 C-80.69666185 83.39101566 -83.28156382 79.76709062 -85.73046875 75.890625 C-86.36082031 74.90835938 -86.36082031 74.90835938 -87.00390625 73.90625 C-93.90105638 61.77141443 -94.54797384 45.05704701 -91.60546875 31.640625 C-87.0075685 16.03307369 -77.16210116 2.77963688 -62.73046875 -5.109375 C-42.35288285 -14.33468871 -18.27022872 -14.11433979 0 0 Z " fill="#4F4241" transform="translate(795.73046875,688.109375)"/>
<path d="M0 0 C11.17941297 8.12640059 18.68947344 19.53914265 22 33 C22.43133471 36.22194974 22.52522283 39.37668275 22.5 42.625 C22.49427979 43.49237793 22.48855957 44.35975586 22.48266602 45.25341797 C22.14136273 57.74029172 18.12353949 68.39169594 10 78 C9.42765625 78.69480469 8.8553125 79.38960937 8.265625 80.10546875 C-0.82517186 90.14807981 -12.63575947 95.5119914 -25.97265625 96.20703125 C-41.23554542 96.697667 -54.86133503 93.8881495 -66.37841797 83.15869141 C-77.71466006 72.02315908 -83.32487365 59.33334357 -83.5 43.4375 C-83.33565773 28.5439818 -77.53382125 16.02229963 -67.37109375 5.16796875 C-48.48067779 -12.10415787 -21.46464067 -13.39052418 0 0 Z " fill="#15A827" transform="translate(268,951)"/>
<path d="M0 0 C0.8353125 0.21011719 1.670625 0.42023437 2.53125 0.63671875 C14.70973957 4.22377387 24.97702244 13.99078691 31 25 C38.17142853 39.81219138 38.76868619 54.20013612 34 70 C27.5965712 85.41044953 15.84020466 94.54255159 1 101 C-11.04639089 105.62695555 -26.40904595 103.95869692 -38 99 C-51.33159272 92.76299756 -60.34274187 81.81149209 -66.09375 68.4609375 C-69.90593099 57.05969251 -69.91885608 41.02616061 -65 30 C-57.78857858 15.98343442 -48.04225587 5.54821761 -33.09375 -0.09765625 C-22.42306521 -3.18125468 -10.63035662 -3.2930996 0 0 Z " fill="#F39515" transform="translate(220,666)"/>
<path d="M0 0 C7.84944648 0.77388909 15.49555181 2.49530928 23.1875 4.1875 C24.25071976 4.42034698 24.25071976 4.42034698 25.3354187 4.65789795 C37.37236403 7.3048898 49.22602515 10.3448118 61 14 C62.25425781 14.37382813 63.50851562 14.74765625 64.80078125 15.1328125 C95.90052135 24.85360558 130.70748845 41.17888511 147 71 C157.90200936 93.35876697 156.61273253 115.74033625 149 139 C141.41970663 159.69905024 127.67171188 180.46960164 110 194 C110.46086289 189.3145606 111.02858354 184.78542941 112.01953125 180.18359375 C113.37990341 172.78160529 113.35206007 165.37247969 113.3125 157.875 C113.31034485 157.14256073 113.3081897 156.41012146 113.30596924 155.65548706 C113.25479423 144.82901461 112.88436157 134.49951314 110 124 C109.80664062 123.28956543 109.61328125 122.57913086 109.4140625 121.84716797 C102.75306386 98.08652235 89.20442544 77.49740525 72 60 C71.41814941 59.39913574 70.83629883 58.79827148 70.23681641 58.17919922 C63.35494778 51.07851694 56.43378767 44.22427969 48.65625 38.09375 C45.81677839 35.85557826 43.0679523 33.52815303 40.3125 31.1875 C31.50986483 23.84630619 22.28331932 17.06814834 12.9765625 10.3828125 C11.73253662 9.48912964 11.73253662 9.48912964 10.46337891 8.57739258 C8.84062994 7.41477094 7.21535879 6.25566041 5.58740234 5.1003418 C4.85730957 4.57867432 4.1272168 4.05700684 3.375 3.51953125 C2.72273437 3.05651611 2.07046875 2.59350098 1.3984375 2.11645508 C0.93695313 1.7480249 0.47546875 1.37959473 0 1 C0 0.67 0 0.34 0 0 Z " fill="#DC311A" transform="translate(201,799)"/>
<path d="M0 0 C59.69579439 0 59.69579439 0 70.7734375 9.65234375 C79.11250096 18.44493522 82.53176688 27.40498306 82.3046875 39.40234375 C81.46287836 49.34216708 76.99513778 57.00486222 70 64 C67.39859808 65.9643239 64.88541485 67.45424204 62 69 C63.42688343 72.83332671 65.20454001 76.25863816 67.265625 79.7890625 C67.90886719 80.89636719 68.55210938 82.00367188 69.21484375 83.14453125 C69.89300872 84.30481638 70.57139507 85.46497214 71.25 86.625 C75.9518448 94.68926427 80.58210633 102.77608056 85 111 C77.10231869 112.3808148 68.7422635 113.57774563 61 111 C54.46751574 105.47608404 51.33551701 96.67561325 48 89 C47.27521907 87.40585587 46.53933036 85.81668378 45.7890625 84.234375 C45.49338379 83.5959668 45.19770508 82.95755859 44.89306641 82.29980469 C43.21118383 79.35293387 41.04891829 76.70457214 39 74 C33.72 73.67 28.44 73.34 23 73 C23 85.54 23 98.08 23 111 C15.41 111 7.82 111 0 111 C0 74.37 0 37.74 0 0 Z " fill="#514443" transform="translate(1244,679)"/>
<path d="M0 0 C59.83413462 0 59.83413462 0 71.80078125 11.5234375 C80.49520063 21.31431118 81.72938312 30.32091761 81.16601562 42.96630859 C80.40264725 52.3175712 74.57560559 58.7764562 68 65 C66.03891908 66.54969328 64.18130099 67.76952252 62 69 C63.26995055 73.16831778 64.83223594 76.73580978 67.046875 80.484375 C67.645 81.50273438 68.243125 82.52109375 68.859375 83.5703125 C69.48328125 84.61960937 70.1071875 85.66890625 70.75 86.75 C71.3584375 87.78382813 71.966875 88.81765625 72.59375 89.8828125 C74.96848354 93.91174077 77.3481031 97.93578009 79.79101562 101.92382812 C80.33951172 102.82037109 80.88800781 103.71691406 81.453125 104.640625 C81.94458008 105.43500977 82.43603516 106.22939453 82.94238281 107.04785156 C84 109 84 109 84 111 C76.08 111 68.16 111 60 111 C58.7315625 108.73576172 58.7315625 108.73576172 57.4375 106.42578125 C49.14630926 91.66076908 49.14630926 91.66076908 40.29296875 77.23046875 C39 75 39 75 39 73 C33.39 73 27.78 73 22 73 C22 85.54 22 98.08 22 111 C14.74 111 7.48 111 0 111 C0 74.37 0 37.74 0 0 Z " fill="#4F4140" transform="translate(612,679)"/>
<path d="M0 0 C5.53231976 4.07843368 10.66664982 8.81715956 14.6640625 14.4375 C14.6640625 15.4275 14.6640625 16.4175 14.6640625 17.4375 C13.92800781 17.83582031 13.19195313 18.23414063 12.43359375 18.64453125 C11.45777344 19.17433594 10.48195313 19.70414063 9.4765625 20.25 C8.51363281 20.77207031 7.55070313 21.29414062 6.55859375 21.83203125 C3.66213935 23.38391142 3.66213935 23.38391142 1.05078125 25.19921875 C-1.3359375 26.4375 -1.3359375 26.4375 -3.4609375 26.328125 C-5.69634144 25.26630813 -6.7534039 24.08324338 -8.3359375 22.1875 C-15.03281801 15.15794508 -24.71190231 12.71409189 -34.1484375 12.25 C-44.83251877 12.47300739 -53.75267804 16.36394796 -61.2109375 24.125 C-68.66517313 33.48244473 -69.29006854 43.95258937 -68.3359375 55.4375 C-66.89359261 64.48493613 -62.54967847 71.10938939 -55.3984375 76.75 C-46.0242316 83.33341178 -36.13779836 84.42806312 -24.90625 83.1640625 C-17.96488198 81.8548365 -11.05907136 79.08897245 -5.9609375 74.125 C-3.87791294 70.67999784 -2.13632808 67.03828117 -0.3359375 63.4375 C-11.2259375 63.4375 -22.1159375 63.4375 -33.3359375 63.4375 C-33.3359375 57.1675 -33.3359375 50.8975 -33.3359375 44.4375 C-14.8559375 44.4375 3.6240625 44.4375 22.6640625 44.4375 C22.6640625 62.61411565 20.78279304 77.90962118 7.921875 91.40625 C-6.55331991 104.4289167 -22.92986147 106.21614981 -41.54443359 105.61230469 C-52.15418802 104.94791916 -60.90586966 100.75336035 -69.3359375 94.4375 C-70.06554687 93.8909375 -70.79515625 93.344375 -71.546875 92.78125 C-82.15722076 84.16288486 -90.07399291 70.44771414 -91.64111328 56.77490234 C-91.77215563 54.05091565 -91.80371251 51.35191306 -91.7734375 48.625 C-91.76586426 47.66231201 -91.75829102 46.69962402 -91.75048828 45.70776367 C-91.57469383 38.07866946 -90.44595999 31.45950047 -87.3359375 24.4375 C-86.94664062 23.51195312 -86.55734375 22.58640625 -86.15625 21.6328125 C-79.25601992 7.21990589 -66.02267896 -2.60439141 -51.2734375 -8 C-34.09281597 -12.78499903 -14.77308481 -9.88166208 0 0 Z " fill="#4F4240" transform="translate(574.3359375,686.5625)"/>
<path d="M0 0 C1.12591553 0.00523682 2.25183105 0.01047363 3.41186523 0.01586914 C4.62680664 0.0190918 5.84174805 0.02231445 7.09350586 0.02563477 C8.37290039 0.03401367 9.65229492 0.04239258 10.97045898 0.05102539 C12.2537207 0.05553711 13.53698242 0.06004883 14.85913086 0.06469727 C18.04211921 0.07652994 21.22501661 0.09301471 24.40795898 0.11352539 C27.14668381 6.05070683 29.53925322 12.01957615 31.65795898 18.20336914 C31.95274643 19.05305267 32.24753387 19.90273621 32.55125427 20.77816772 C33.18079056 22.59400823 33.80859296 24.41045066 34.43478394 26.22744751 C35.75966795 30.0714766 37.09331286 33.91244823 38.42637634 37.75364685 C39.10492599 39.70919327 39.78303585 41.66489234 40.46070862 43.6207428 C43.56058875 52.56588825 46.69412951 61.49889262 49.84545898 70.42602539 C50.08937378 71.11809082 50.33328857 71.81015625 50.58459473 72.52319336 C52.99521496 79.36129384 55.42533436 86.1910293 57.92749023 92.99633789 C58.49802124 94.54840942 58.49802124 94.54840942 59.08007812 96.13183594 C59.77361055 98.0101071 60.47165553 99.88672143 61.17529297 101.76123047 C61.4737915 102.56713623 61.77229004 103.37304199 62.07983398 104.20336914 C62.33861328 104.89293701 62.59739258 105.58250488 62.86401367 106.29296875 C63.40795898 108.11352539 63.40795898 108.11352539 63.40795898 111.11352539 C55.81795898 111.11352539 48.22795898 111.11352539 40.40795898 111.11352539 C38.42795898 104.84352539 36.44795898 98.57352539 34.40795898 92.11352539 C19.22795898 91.78352539 4.04795898 91.45352539 -11.59204102 91.11352539 C-12.25204102 94.08352539 -12.91204102 97.05352539 -13.59204102 100.11352539 C-14.80492412 103.83627973 -16.20113516 107.45080664 -17.59204102 111.11352539 C-25.18204102 111.11352539 -32.77204102 111.11352539 -40.59204102 111.11352539 C-39.46755283 103.24210811 -39.46755283 103.24210811 -38.09594727 99.41821289 C-37.6361145 98.11787109 -37.6361145 98.11787109 -37.16699219 96.79125977 C-36.8328833 95.86635742 -36.49877441 94.94145508 -36.15454102 93.98852539 C-35.43244252 91.95493537 -34.71112797 89.92106686 -33.99047852 87.88696289 C-33.41185059 86.26032715 -33.41185059 86.26032715 -32.8215332 84.60083008 C-31.50795416 80.87502328 -30.22140945 77.14077253 -28.94360352 73.40258789 C-28.72177902 72.75450165 -28.49995453 72.10641541 -28.27140808 71.43869019 C-27.18075863 68.25148649 -26.09226285 65.06357759 -25.00634766 61.87475586 C-21.66106222 52.12187428 -21.66106222 52.12187428 -19.96313477 48.25805664 C-18.39976819 44.6725578 -17.16965408 41.01784201 -15.96704102 37.30102539 C-13.30188241 29.19548404 -10.55872179 21.11816989 -7.77954102 13.05102539 C-7.38234863 11.89046631 -6.98515625 10.72990723 -6.57592773 9.53417969 C-6.2035498 8.45563721 -5.83117187 7.37709473 -5.44750977 6.26586914 C-5.11388428 5.29641357 -4.78025879 4.32695801 -4.43652344 3.328125 C-3.221224 0.14108215 -3.221224 0.14108215 0 0 Z " fill="#4F4140" transform="translate(608.592041015625,819.886474609375)"/>
<path d="M0 0 C57.8 0 57.8 0 70.53125 12.50390625 C79.07042131 22.05840585 79.66963525 32.73177689 79 45 C77.66748503 54.03420699 72.77869014 60.79361922 66.0625 66.8125 C55.9000093 74.07142193 46.84641387 75.29789435 34.5625 75.125 C30.416875 75.08375 26.27125 75.0425 22 75 C22 86.88 22 98.76 22 111 C14.74 111 7.48 111 0 111 C0 74.37 0 37.74 0 0 Z " fill="#4F4140" transform="translate(936,679)"/>
<path d="M0 0 C7.59 0 15.18 0 23 0 C23.0093457 2.35125 23.01869141 4.7025 23.02832031 7.125 C23.06215789 14.91231315 23.11774445 22.6993632 23.18390274 30.48646545 C23.2233337 35.20567166 23.25554362 39.9246925 23.27099609 44.64404297 C23.28619161 49.20247557 23.32068828 53.7603984 23.36830902 58.31860352 C23.38309303 60.05358437 23.3910393 61.78863801 23.39188385 63.52368164 C23.39426433 65.96294871 23.42142845 68.40081923 23.45410156 70.83984375 C23.4490712 71.54978989 23.44404083 72.25973602 23.43885803 72.99119568 C23.54965491 78.37236283 25.04839464 82.56613793 28 87 C34.24300996 91.83833272 41.69659216 91.64339437 49.25390625 90.7265625 C55.59493702 89.45113696 58.53053651 86.20419524 62 81 C62.2128051 78.37438157 62.31124607 75.85121 62.31884766 73.22387695 C62.33391609 72.03816101 62.33391609 72.03816101 62.34928894 70.82849121 C62.38018531 68.2150953 62.39717389 65.60180214 62.4140625 62.98828125 C62.43276897 61.1765199 62.45234199 59.3647673 62.4727478 57.55302429 C62.52413011 52.78389646 62.56372315 48.01474037 62.60089111 43.2454834 C62.64089257 38.37907891 62.69200249 33.51279262 62.7421875 28.64648438 C62.83901906 19.09773092 62.92237413 9.54892892 63 0 C70.59 0 78.18 0 86 0 C86.09065926 10.50148084 86.16392184 21.00269832 86.20724869 31.50448322 C86.22805184 36.38179979 86.25623539 41.25883287 86.30175781 46.13598633 C86.34547653 50.8498275 86.36919169 55.56339737 86.37950897 60.27742577 C86.38685391 62.06862847 86.40119596 63.85981768 86.42292023 65.6509037 C86.59463997 80.40619406 84.93519705 91.5259971 74.4453125 102.6484375 C64.07745089 112.42101519 51.37360739 113.49235014 37.84765625 113.2734375 C26.14565021 112.81238714 17.77111348 108.54482948 9.48046875 100.53125 C2.15275988 92.56153643 -0.33354998 81.35484935 -0.22705078 70.83984375 C-0.22748886 69.68229332 -0.22748886 69.68229332 -0.22793579 68.50135803 C-0.22655531 65.97995297 -0.21105533 63.4588527 -0.1953125 60.9375 C-0.1915778 59.17773602 -0.18873299 57.41796994 -0.18673706 55.65820312 C-0.17913658 51.04850424 -0.15951923 46.43893333 -0.1373291 41.82928467 C-0.11679309 37.11667613 -0.10771882 32.40404673 -0.09765625 27.69140625 C-0.07626964 18.4608725 -0.04111707 9.23046697 0 0 Z " fill="#534645" transform="translate(831,679)"/>
<path d="M0 0 C8.81809599 5.37891955 15.33841822 11.23015737 19 21 C18.09636719 21.55429687 17.19273438 22.10859375 16.26171875 22.6796875 C15.07029421 23.41142856 13.87888897 24.14320104 12.6875 24.875 C12.09259766 25.23980469 11.49769531 25.60460937 10.88476562 25.98046875 C8.22637701 27.61411539 5.59656263 29.26895824 3 31 C1 30.9375 1 30.9375 -1 30 C-2.02611949 28.34928604 -3.02308143 26.68029994 -4 25 C-8.5760123 20.4239877 -14.18870559 18.14724169 -20.62890625 17.8984375 C-25.87969979 18.22710118 -29.26458454 19.02358999 -33 23 C-34.55024464 26.10048928 -34.28992015 28.57894218 -34 32 C-31.45588746 35.84818853 -29.27764418 37.72114338 -25 39.375 C-23.95199219 39.78492188 -22.90398437 40.19484375 -21.82421875 40.6171875 C-18.92382084 41.6837297 -16.00522249 42.6931075 -13.08203125 43.6953125 C-12.21384766 43.9938916 -11.34566406 44.2924707 -10.45117188 44.60009766 C-8.73574622 45.18513272 -7.01710891 45.76086236 -5.29492188 46.32568359 C5.22549811 49.8735096 14.88867693 54.82503374 20.4375 64.875 C23.45649997 72.52750861 23.37021426 82.22850166 21.1171875 90.07421875 C16.79104925 99.42841834 9.59207791 105.45279113 0 109 C-13.27228138 112.79208039 -29.42121939 113.009296 -42 107 C-49.7305752 102.61428806 -55.99138302 97.04244539 -60 89 C-60.495 86.03 -60.495 86.03 -61 83 C-52.585 78.05 -52.585 78.05 -44 73 C-41.67304297 75.32695703 -40.0703174 77.27349617 -38.25 79.9375 C-34.77757719 84.62483998 -31.29082796 86.93270445 -25.6875 88.75 C-17.39994905 89.52093497 -8.73227392 89.87186048 -1.9375 84.3125 C-0.5552224 80.90288191 0.00159977 77.53854657 -1 74 C-4.58456549 69.49016426 -8.45575124 67.73892776 -13.8125 66.0625 C-15.32981098 65.55453067 -16.84672894 65.04538614 -18.36328125 64.53515625 C-19.51691162 64.15447998 -19.51691162 64.15447998 -20.69384766 63.76611328 C-48.54723034 54.51310515 -48.54723034 54.51310515 -55.03125 42.01171875 C-58.0129201 34.46091531 -58.43340848 25.25886939 -55.75 17.5625 C-50.84410675 7.57550302 -44.07898582 0.89527756 -33.609375 -3.1171875 C-22.71933795 -5.78076799 -9.91928038 -5.54358527 0 0 Z " fill="#4F4241" transform="translate(1125,681)"/>
<path d="M0 0 C8.47710602 5.6641324 14.02838037 11.30807159 18.3515625 20.48828125 C15.78126296 22.19630692 13.19353525 23.8758646 10.6015625 25.55078125 C9.87195312 26.03611328 9.14234375 26.52144531 8.390625 27.02148438 C7.32714844 27.70307617 7.32714844 27.70307617 6.2421875 28.3984375 C5.59282227 28.82261963 4.94345703 29.24680176 4.27441406 29.68383789 C1.85871964 30.69446678 0.75353182 30.44894174 -1.6484375 29.48828125 C-3.03515625 27.78125 -3.03515625 27.78125 -4.3359375 25.67578125 C-7.66534801 21.01627961 -11.13246439 18.93554152 -16.6484375 17.48828125 C-22.52542685 16.64455506 -26.46834419 17.45603151 -31.6484375 20.48828125 C-32.3084375 20.48828125 -32.9684375 20.48828125 -33.6484375 20.48828125 C-34.86509852 24.13826431 -35.40345523 27.70626582 -34.6484375 31.48828125 C-31.60160105 36.64020471 -27.78061381 38.0289665 -22.3984375 39.92578125 C-21.60574463 40.220896 -20.81305176 40.51601074 -19.99633789 40.82006836 C-16.80348836 42.00487639 -13.59779181 43.15152606 -10.38818359 44.29003906 C1.60493183 48.54644575 12.57424518 52.79376772 19.3828125 64.21875 C23.181868 72.46762513 22.46487037 82.52370265 19.4140625 90.86328125 C15.33989935 99.49498284 8.13489712 105.0564948 -0.6484375 108.48828125 C-1.46828125 108.84277344 -2.288125 109.19726562 -3.1328125 109.5625 C-15.00901241 112.68989931 -30.8922919 112.37099982 -42.05859375 107.03515625 C-51.87753674 101.17044822 -58.60603497 94.26802134 -62.6484375 83.48828125 C-56.56649122 79.21329002 -50.37097222 75.6600826 -43.6484375 72.48828125 C-43.27332031 73.0915625 -42.89820313 73.69484375 -42.51171875 74.31640625 C-37.85057481 81.59577462 -33.41089933 86.49615648 -24.6484375 88.48828125 C-17.40465729 89.20973446 -11.13625251 88.90912916 -4.6484375 85.48828125 C-2.23537954 82.69818299 -1.7092334 81.08408109 -1.3359375 77.42578125 C-1.65103936 74.46382376 -2.09079629 72.98348356 -3.6484375 70.48828125 C-9.241793 66.3346733 -16.31812592 64.59500426 -22.8984375 62.61328125 C-35.02686698 58.93133037 -48.02797707 54.72068923 -54.94921875 43.3515625 C-59.10372845 34.71417978 -59.26023414 24.06665632 -56.1484375 15.05078125 C-52.208705 6.72896032 -45.01002215 1.04229911 -36.6484375 -2.51171875 C-25.15979082 -6.39578079 -10.69494593 -6.10463728 0 0 Z " fill="#4F4241" transform="translate(1222.6484375,822.51171875)"/>
<path d="M0 0 C22.44 0 44.88 0 68 0 C68 6.93 68 13.86 68 21 C52.82 21 37.64 21 22 21 C22 28.92 22 36.84 22 45 C35.86 45 49.72 45 64 45 C64 51.6 64 58.2 64 65 C50.14 65 36.28 65 22 65 C22 73.25 22 81.5 22 90 C37.51 90 53.02 90 69 90 C69 96.93 69 103.86 69 111 C46.23 111 23.46 111 0 111 C0 74.37 0 37.74 0 0 Z " fill="#4F4241" transform="translate(1442,679)"/>
<path d="M0 0 C22.44 0 44.88 0 68 0 C68 6.93 68 13.86 68 21 C52.82 21 37.64 21 22 21 C22 28.92 22 36.84 22 45 C35.86 45 49.72 45 64 45 C64 51.6 64 58.2 64 65 C50.14 65 36.28 65 22 65 C22 73.25 22 81.5 22 90 C37.18 90 52.36 90 68 90 C68 96.93 68 103.86 68 111 C45.56 111 23.12 111 0 111 C0 74.37 0 37.74 0 0 Z " fill="#4D403F" transform="translate(1082,820)"/>
<path d="M0 0 C4.45147838 3.82627075 8.04874324 7.92383837 11 13 C11 13.66 11 14.32 11 15 C8.40607559 16.99033574 5.50974818 18.54251945 2.6875 20.1875 C1.90181641 20.66380859 1.11613281 21.14011719 0.30664062 21.63085938 C-0.45068359 22.07623047 -1.20800781 22.52160156 -1.98828125 22.98046875 C-2.68477783 23.39192139 -3.38127441 23.80337402 -4.09887695 24.22729492 C-6 25 -6 25 -9 24 C-10.11076483 22.77112853 -11.16783941 21.4929562 -12.1875 20.1875 C-18.03236361 13.323469 -25.74466336 10.53617171 -34.59765625 9.77734375 C-44.70443747 9.45040146 -52.05369518 11.87472337 -60 18 C-60.66 18 -61.32 18 -62 18 C-62.2784375 18.58136719 -62.556875 19.16273438 -62.84375 19.76171875 C-64.28772048 22.55697242 -66.02038051 25.10330654 -67.78125 27.70703125 C-72.27559601 36.16273994 -72.29939763 47.21521068 -70.25 56.4375 C-66.48899973 67.15635077 -60.87549678 73.2953064 -51 79 C-42.77096063 82.54978169 -32.45674045 82.17233088 -24.0625 79.3125 C-16.79151788 76.26510308 -11.97565436 72.8381255 -8 66 C-1.27746528 69.17180135 4.91805372 72.72500877 11 77 C6.47708007 88.75959181 -4.96806131 95.27600099 -15.84765625 100.3203125 C-28.40693424 105.05279406 -45.94285194 105.48832754 -58.375 100.3203125 C-59.674375 99.66675781 -59.674375 99.66675781 -61 99 C-62.010625 98.50242187 -63.02125 98.00484375 -64.0625 97.4921875 C-78.34540537 89.81512586 -87.49291061 78.14895793 -92.2734375 62.7265625 C-96.53368825 46.7391699 -94.66376726 29.61223314 -86.91796875 15.01953125 C-78.72805967 2.12584547 -66.83712685 -7.01198614 -52 -11 C-33.2755889 -14.27954183 -15.31940615 -11.96348273 0 0 Z " fill="#4F4241" transform="translate(768,830)"/>
<path d="M0 0 C3.96 0 7.92 0 12 0 C12 141.57 12 283.14 12 429 C8.04 429 4.08 429 0 429 C0 287.43 0 145.86 0 0 Z " fill="#4C403E" transform="translate(422,641)"/>
<path d="M0 0 C22.44 0 44.88 0 68 0 C68 6.93 68 13.86 68 21 C52.49 21 36.98 21 21 21 C21 28.92 21 36.84 21 45 C34.86 45 48.72 45 63 45 C63 51.6 63 58.2 63 65 C49.14 65 35.28 65 21 65 C21 73.25 21 81.5 21 90 C36.51 90 52.02 90 68 90 C68 96.93 68 103.86 68 111 C45.56 111 23.12 111 0 111 C0 74.37 0 37.74 0 0 Z " fill="#4E4140" transform="translate(1161,679)"/>
<path d="M0 0 C7.92 0 15.84 0 24 0 C28.49701574 11.24253934 28.49701574 11.24253934 29.89453125 15.890625 C30.20648437 16.91808838 30.5184375 17.94555176 30.83984375 19.00415039 C31.32130859 20.61084595 31.32130859 20.61084595 31.8125 22.25 C32.51608051 24.56666353 33.22052121 26.88306597 33.92578125 29.19921875 C34.44906006 30.92084229 34.44906006 30.92084229 34.98291016 32.67724609 C36.45408026 37.4834451 37.97044887 42.27460824 39.5 47.0625 C39.7769873 47.92987793 40.05397461 48.79725586 40.33935547 49.69091797 C41.22514077 52.46096402 42.11258669 55.2304751 43 58 C43.73840407 60.30855447 44.47667967 62.61715003 45.21484375 64.92578125 C47.14170794 70.95100837 49.07025692 76.97569435 51 83 C55.53511355 69.80011651 59.70080946 56.51025382 63.71334839 43.14453125 C66.59705823 33.54493631 69.58292846 23.99481713 72.8203125 14.5078125 C74.13987732 10.5840734 75.33339727 6.63613695 76.45703125 2.65234375 C77 1 77 1 78 0 C79.78071246 -0.08726223 81.5648314 -0.10699041 83.34765625 -0.09765625 C84.42724609 -0.09443359 85.50683594 -0.09121094 86.61914062 -0.08789062 C88.32360352 -0.07532227 88.32360352 -0.07532227 90.0625 -0.0625 C91.77276367 -0.05573242 91.77276367 -0.05573242 93.51757812 -0.04882812 C96.34510351 -0.03699747 99.1725264 -0.0205141 102 0 C99.40582113 9.00195191 96.41409222 17.86958679 93.4375 26.75 C92.89966271 28.35842691 92.3619861 29.96690755 91.82446289 31.57543945 C90.73520975 34.83453512 89.64524244 38.0933905 88.5546875 41.35205078 C86.34307583 47.9619083 84.14054839 54.57478424 81.9375 61.1875 C81.34485352 62.96447266 81.34485352 62.96447266 80.74023438 64.77734375 C78.73810877 70.78048612 76.73874624 76.78451802 74.74510193 82.79048157 C73.72498143 85.86315372 72.70374179 88.93545338 71.68240356 92.00772095 C71.18891647 93.49319614 70.69596919 94.97885077 70.20358276 96.46469116 C69.52118642 98.52378702 68.83696352 100.58226752 68.15234375 102.640625 C67.5644104 104.41228027 67.5644104 104.41228027 66.96459961 106.21972656 C66 109 66 109 65 111 C55.76 111 46.52 111 37 111 C35.52429164 106.71760287 34.04906574 102.4350449 32.57495117 98.15209961 C32.07586513 96.7024648 31.57652604 95.25291707 31.0769043 93.8034668 C27.65929916 83.88793768 24.29920477 73.95564643 21 64 C19.08503296 58.22860193 17.16841455 52.45775301 15.25 46.6875 C14.86430847 45.52701141 14.86430847 45.52701141 14.4708252 44.34307861 C10.60686129 32.7252202 6.66787685 21.1376062 2.59082031 9.5925293 C2.24631836 8.6106665 1.90181641 7.62880371 1.546875 6.6171875 C1.24620117 5.76753418 0.94552734 4.91788086 0.63574219 4.04248047 C0 2 0 2 0 0 Z " fill="#4F4241" transform="translate(1330,679)"/>
<path d="M0 0 C21.78 0 43.56 0 66 0 C66 6.93 66 13.86 66 21 C51.48 21 36.96 21 22 21 C22 29.58 22 38.16 22 47 C36.19 47 50.38 47 65 47 C65 53.93 65 60.86 65 68 C50.81 68 36.62 68 22 68 C22 82.19 22 96.38 22 111 C14.74 111 7.48 111 0 111 C0 74.37 0 37.74 0 0 Z " fill="#4E4140" transform="translate(500,820)"/>
<path d="M0 0 C0.8559375 -0.02449219 1.711875 -0.04898438 2.59375 -0.07421875 C12.98490358 -0.12145127 20.72817807 4.45316775 28.25 11.375 C35.68306759 19.38126435 36.97427015 28.84845272 36.59765625 39.4296875 C35.73287592 49.24348673 31.67663176 57.5120306 24.33203125 64.09375 C14.9773689 71.47615279 4.93651005 73.48986248 -6.8203125 72.13671875 C-16.33453887 70.23002156 -24.31256988 64.2551335 -29.75 56.375 C-35.64081717 47.47896899 -36.14621978 37.71463782 -34.75 27.375 C-32.31574672 17.64871045 -27.03282957 9.96271412 -18.625 4.5 C-17.35809804 3.74826979 -16.06450821 3.03998651 -14.75 2.375 C-14.04617188 2.00890625 -13.34234375 1.6428125 -12.6171875 1.265625 C-8.41322528 -0.04023792 -4.37778869 0.00647602 0 0 Z " fill="#FBFCFD" transform="translate(759.75,698.625)"/>
<path d="M0 0 C26.73 0 53.46 0 81 0 C81 6.93 81 13.86 81 21 C71.43 21 61.86 21 52 21 C52 50.7 52 80.4 52 111 C44.41 111 36.82 111 29 111 C29 81.3 29 51.6 29 21 C19.43 21 9.86 21 0 21 C0 14.07 0 7.14 0 0 Z " fill="#504342" transform="translate(946,820)"/>
<path d="M0 0 C6.33870421 5.05018073 10.31637972 10.66853578 12.75 18.375 C13.81971106 29.60696614 12.49441828 37.7193961 6 47 C5.46375 47.86625 4.9275 48.7325 4.375 49.625 C-2.99415267 56.99415267 -11.90332137 59.38325255 -22.00415039 59.45092773 C-31.18809708 59.21357366 -38.21169771 55.26991564 -44.5 48.75 C-51.79885767 39.59601601 -53.24783885 30.58707502 -52 19 C-51.12553703 15.62987865 -49.85480799 12.93533477 -48 10 C-47.57589844 9.30390625 -47.15179688 8.6078125 -46.71484375 7.890625 C-42.4106765 1.51230472 -36.82388795 -2.35047971 -29.8125 -5.375 C-18.47040142 -7.23436042 -9.65711683 -6.5780361 0 0 Z " fill="#DD3019" transform="translate(338,699)"/>
<path d="M0 0 C7.74395337 4.40789042 13.33747597 11.46533394 16 20 C16.21585878 22.81737755 16.33402419 25.49867332 16.3125 28.3125 C16.30686035 29.07361084 16.3012207 29.83472168 16.29541016 30.61889648 C16.09912047 39.66085451 13.30789225 46.37739729 7 53 C-1.29794135 59.83182057 -9.48305292 61.59947251 -20.13671875 61.44140625 C-28.42075436 60.49489864 -35.99387114 56.25874823 -41.53125 50.015625 C-48.15466373 40.92604659 -49.1850718 31.90042462 -48 21 C-46.38593575 13.79367783 -42.69728237 7.71743062 -37 3 C-24.4005267 -4.49113762 -13.52586574 -6.59848465 0 0 Z " fill="#529ACE" transform="translate(142,965)"/>
<path d="M0 0 C7.26 0 14.52 0 22 0 C22 29.7 22 59.4 22 90 C35.86 90 49.72 90 64 90 C64 96.93 64 103.86 64 111 C42.88 111 21.76 111 0 111 C0 74.37 0 37.74 0 0 Z " fill="#4E4140" transform="translate(835,820)"/>
<path d="M0 0 C7.59 0 15.18 0 23 0 C23 36.63 23 73.26 23 111 C15.41 111 7.82 111 0 111 C0 74.37 0 37.74 0 0 Z " fill="#544746" transform="translate(1039,820)"/>
<path d="M0 0 C7.59 0 15.18 0 23 0 C23 36.63 23 73.26 23 111 C15.41 111 7.82 111 0 111 C0 74.37 0 37.74 0 0 Z " fill="#534645" transform="translate(911,820)"/>
<path d="M0 0 C7.26 0 14.52 0 22 0 C22 36.63 22 73.26 22 111 C14.74 111 7.48 111 0 111 C0 74.37 0 37.74 0 0 Z " fill="#4F4140" transform="translate(793,820)"/>
<path d="M0 0 C1.98 0 3.96 0 6 0 C6 19.8 6 39.6 6 60 C4.02 60 2.04 60 0 60 C-0.495 57.03 -0.495 57.03 -1 54 C-1.66 54.598125 -2.32 55.19625 -3 55.8125 C-8.56890621 59.87316078 -14.05028787 61.74461201 -21 61 C-29.2948829 58.95011515 -33.5983865 54.23122217 -38 47 C-39.91147804 41.26556587 -40.20171718 34.25810392 -38.09375 28.54296875 C-34.52312926 22.55760128 -29.67262795 18.20478391 -23 16 C-16.5321818 15.32971467 -10.49450215 15.15384849 -5 19 C-3.68 20.32 -2.36 21.64 -1 23 C-0.67 15.41 -0.34 7.82 0 0 Z " fill="#554948" transform="translate(962,972)"/>
<path d="M0 0 C3.35932107 2.05634911 5.2261378 3.67123795 7.4375 6.98828125 C7.7675 4.67828125 8.0975 2.36828125 8.4375 -0.01171875 C10.0875 -0.01171875 11.7375 -0.01171875 13.4375 -0.01171875 C13.4375 13.84828125 13.4375 27.70828125 13.4375 41.98828125 C11.7875 41.98828125 10.1375 41.98828125 8.4375 41.98828125 C7.9425 39.01828125 7.9425 39.01828125 7.4375 35.98828125 C7.01339844 36.39820313 6.58929687 36.808125 6.15234375 37.23046875 C1.45912025 41.54204551 -2.35660344 43.87796265 -8.9453125 44.05078125 C-16.57101136 43.67765837 -21.77538712 40.99542936 -26.9375 35.42578125 C-31.51739487 28.55593894 -31.78466702 21.05581806 -30.5625 12.98828125 C-28.20417491 6.92982542 -24.22546206 3.00852768 -18.5625 -0.01171875 C-12.78786829 -1.93659599 -5.71010841 -2.25444829 0 0 Z " fill="#F9FAFA" transform="translate(1076.5625,989.01171875)"/>
<path d="M0 0 C6.39591603 2.83426867 11.11554221 8.18365515 14.0546875 14.4453125 C15.50185332 22.002734 14.53645769 28.92209876 10.29296875 35.40625 C6.0958771 40.62782859 1.35506569 43.56112004 -5.3828125 44.3828125 C-11.85814831 44.87151709 -17.19980744 43.89872069 -22.33984375 39.8359375 C-26.8738096 35.52151105 -30.00306159 31.3626597 -30.81640625 24.98046875 C-30.82980342 12.85603209 -30.82980342 12.85603209 -26.3828125 7.3828125 C-18.65672542 -0.30742267 -10.96023177 -2.83887971 0 0 Z " fill="#F9F9FA" transform="translate(575.3828125,988.6171875)"/>
<path d="M0 0 C27 0 27 0 35 5 C39.55983955 9.91059643 40.36287541 13.84777451 40.27734375 20.3671875 C39.67923594 26.04499968 37.17238497 30.2510178 32.875 33.9375 C29.12800337 36.6255628 27.52525959 37.12370839 22.9921875 37.09765625 C22.1038623 37.09515869 21.21553711 37.09266113 20.30029297 37.09008789 C19.16994629 37.08098389 18.03959961 37.07187988 16.875 37.0625 C11.491875 37.0315625 11.491875 37.0315625 6 37 C6 44.59 6 52.18 6 60 C4.02 60 2.04 60 0 60 C0 40.2 0 20.4 0 0 Z " fill="#4D4140" transform="translate(1002,972)"/>
<path d="M0 0 C5.09620539 3.01237564 8.70841667 7.93775001 10.5625 13.5 C10.5625 16.8 10.5625 20.1 10.5625 23.5 C-1.6475 23.5 -13.8575 23.5 -26.4375 23.5 C-22.43436362 31.79345329 -22.43436362 31.79345329 -15.4375 36.5 C-9.42042182 37.06274832 -4.61807143 36.91159582 0.5625 33.5 C2.37804159 31.93897509 2.37804159 31.93897509 3.5625 30.5 C5.2125 31.16 6.8625 31.82 8.5625 32.5 C7.74818457 36.06262999 6.27329898 38.12631136 3.4375 40.3125 C-0.73337646 42.74295559 -4.83373669 42.97137029 -9.5625 43 C-10.24328613 43.00620361 -10.92407227 43.01240723 -11.62548828 43.01879883 C-17.27638686 42.87790437 -21.27468666 41.43580049 -25.484375 37.66796875 C-30.92459137 31.34184559 -32.923275 26.41238499 -32.671875 18.015625 C-31.93052174 10.05843338 -28.60983482 6.19010516 -22.59375 1.06640625 C-16.66237434 -3.2424373 -6.55896518 -2.88543623 0 0 Z " fill="#544948" transform="translate(905.4375,989.5)"/>
<path d="M0 0 C5.34551615 3.87549921 9.65978338 8.35632102 11.5 14.8125 C11.5 17.7825 11.5 20.7525 11.5 23.8125 C-0.71 23.8125 -12.92 23.8125 -25.5 23.8125 C-22.54470245 30.70819427 -21.07289572 33.52605214 -14.5 36.8125 C-8.48292182 37.37524832 -3.68057143 37.22409582 1.5 33.8125 C3.31554159 32.25147509 3.31554159 32.25147509 4.5 30.8125 C6.15 31.4725 7.8 32.1325 9.5 32.8125 C7.7679374 37.22138663 4.71180407 39.38586072 0.81640625 41.8984375 C-5.35852244 44.33508727 -14.22321913 44.04844017 -20.41015625 41.71484375 C-25.39135104 38.5963996 -28.05893856 35.10146645 -30.5 29.8125 C-30.83 29.1525 -31.16 28.4925 -31.5 27.8125 C-32.17681193 20.44491874 -32.68123225 13.60975213 -28.06640625 7.49609375 C-20.18353662 -0.97651675 -11.48923526 -3.89813339 0 0 Z " fill="#514645" transform="translate(1238.5,989.1875)"/>
<path d="M0 0 C6.249375 -0.0928125 6.249375 -0.0928125 12.625 -0.1875 C13.92775879 -0.21481201 15.23051758 -0.24212402 16.57275391 -0.27026367 C27.31180586 -0.34757687 27.31180586 -0.34757687 32 3 C36.70062584 8.20880161 37.29565576 11.36926081 37.21484375 18.23828125 C36.8303726 23.18048318 35.14955801 25.93886953 31.5625 29.25 C27.19167046 32.23495676 24.50240336 33.25002452 19.140625 33.1953125 C18.13547852 33.19031738 17.13033203 33.18532227 16.09472656 33.18017578 C14.19158691 33.15286377 14.19158691 33.15286377 12.25 33.125 C8.2075 33.08375 4.165 33.0425 0 33 C0 22.11 0 11.22 0 0 Z " fill="#F9F9FA" transform="translate(634,700)"/>
<path d="M0 0 C4.186875 -0.061875 8.37375 -0.12375 12.6875 -0.1875 C13.99936279 -0.21481201 15.31122559 -0.24212402 16.6628418 -0.27026367 C17.70609619 -0.27775635 18.74935059 -0.28524902 19.82421875 -0.29296875 C20.88729248 -0.3086792 21.95036621 -0.32438965 23.0456543 -0.34057617 C27.68975712 0.19479474 30.86302581 2.40065555 33.75 6 C37.07035783 10.42714378 37.36323529 13.55147072 37 19 C35.29951968 24.19093992 33.16333079 27.46116882 29 31 C25.76248322 32.07917226 23.42248229 32.11425601 20.01953125 32.09765625 C18.97128174 32.09515869 17.92303223 32.09266113 16.84301758 32.09008789 C15.51294678 32.08098389 14.18287598 32.07187988 12.8125 32.0625 C8.584375 32.041875 4.35625 32.02125 0 32 C0 21.44 0 10.88 0 0 Z " fill="#FCFCFD" transform="translate(1267,700)"/>
<path d="M0 0 C5.754375 -0.0928125 5.754375 -0.0928125 11.625 -0.1875 C13.42251709 -0.22846802 13.42251709 -0.22846802 15.25634766 -0.27026367 C20.88772647 -0.31423666 25.20662686 -0.3324604 30 3 C34.90864867 8.43931339 35.29216677 11.8331753 35.21484375 19.015625 C34.84519687 24.15035618 33.22153105 26.87008378 29.5 30.3125 C25.71307075 32.86867724 22.91836777 33.12126121 18.45703125 33.09765625 C17.00647339 33.09390991 17.00647339 33.09390991 15.52661133 33.09008789 C14.30095459 33.08098389 13.07529785 33.07187988 11.8125 33.0625 C5.9653125 33.0315625 5.9653125 33.0315625 0 33 C0 22.11 0 11.22 0 0 Z " fill="#FCFCFD" transform="translate(958,700)"/>
<path d="M0 0 C3.7382674 3.01138207 6.70630234 6.18140702 8.25 10.8125 C8.7809477 17.07768281 8.1064115 21.70329945 4.25 26.8125 C0.3380826 30.53513108 -3.48902189 32.1235462 -8.875 32.375 C-13.49664558 32.11981712 -16.22376682 30.91894351 -19.75 27.8125 C-24.58003032 22.32976288 -25.10496513 19.00703879 -25.02734375 11.796875 C-24.65333603 7.77234118 -23.52391295 5.73240837 -20.75 2.8125 C-13.90170172 -2.358664 -7.95356288 -3.43449306 0 0 Z " fill="#FAFAFA" transform="translate(953.75,995.1875)"/>
<path d="M0 0 C3.35932107 2.05634911 5.2261378 3.67123795 7.4375 6.98828125 C7.7675 4.67828125 8.0975 2.36828125 8.4375 -0.01171875 C10.0875 -0.01171875 11.7375 -0.01171875 13.4375 -0.01171875 C13.4375 13.84828125 13.4375 27.70828125 13.4375 41.98828125 C11.7875 41.98828125 10.1375 41.98828125 8.4375 41.98828125 C7.9425 39.01828125 7.9425 39.01828125 7.4375 35.98828125 C7.01339844 36.39820313 6.58929687 36.808125 6.15234375 37.23046875 C1.45912025 41.54204551 -2.35660344 43.87796265 -8.9453125 44.05078125 C-16.57101136 43.67765837 -21.77538712 40.99542936 -26.9375 35.42578125 C-31.51739487 28.55593894 -31.78466702 21.05581806 -30.5625 12.98828125 C-28.20417491 6.92982542 -24.22546206 3.00852768 -18.5625 -0.01171875 C-12.78786829 -1.93659599 -5.71010841 -2.25444829 0 0 Z M-23.36328125 12.26953125 C-26.23691053 16.38808787 -26.35651614 21.17881204 -25.5625 25.98828125 C-23.46007713 30.61506652 -20.84697283 34.04633451 -16.75 37.05078125 C-11.3173907 38.64860752 -6.67972712 38.72116756 -1.3125 36.86328125 C2.51834349 34.25134251 5.33911815 31.18504496 7.4375 26.98828125 C8.16933976 20.96681486 8.46021834 15.54615957 4.875 10.42578125 C0.90462726 5.9428017 -3.18613526 4.23842491 -9.125 3.61328125 C-15.79153855 4.34054 -19.22127507 7.31216953 -23.36328125 12.26953125 Z " fill="#504544" transform="translate(1076.5625,989.01171875)"/>
<path d="M0 0 C6.39591603 2.83426867 11.11554221 8.18365515 14.0546875 14.4453125 C15.50185332 22.002734 14.53645769 28.92209876 10.29296875 35.40625 C6.0958771 40.62782859 1.35506569 43.56112004 -5.3828125 44.3828125 C-11.85814831 44.87151709 -17.19980744 43.89872069 -22.33984375 39.8359375 C-26.8738096 35.52151105 -30.00306159 31.3626597 -30.81640625 24.98046875 C-30.82980342 12.85603209 -30.82980342 12.85603209 -26.3828125 7.3828125 C-18.65672542 -0.30742267 -10.96023177 -2.83887971 0 0 Z M-21.7578125 10.8203125 C-24.96850741 15.8833314 -25.76794925 19.24935527 -24.921875 25.171875 C-23.56013305 30.75699054 -19.92601849 34.15474508 -15.3828125 37.3828125 C-11.62660905 39.26091423 -7.47313825 38.89709322 -3.3828125 38.3828125 C1.39729019 36.64311526 4.61758775 34.00142115 7.1171875 29.5703125 C9.37919616 24.23197207 9.44467253 19.72735343 7.4921875 14.1953125 C4.29800591 9.40404011 0.21664171 5.92266241 -5.3828125 4.3828125 C-11.94402989 3.50798352 -17.24814478 6.19196931 -21.7578125 10.8203125 Z " fill="#544847" transform="translate(575.3828125,988.6171875)"/>
<path d="M0 0 C2.68716768 1.34358384 2.74143087 2.5112583 3.734375 5.3125 C4.22067383 6.66722412 4.22067383 6.66722412 4.71679688 8.04931641 C5.22823242 9.50990479 5.22823242 9.50990479 5.75 11 C6.10126953 11.98790527 6.45253906 12.97581055 6.81445312 13.99365234 C7.53344995 16.0178698 8.24958493 18.043106 8.96289062 20.06933594 C9.91253839 22.75285095 10.88095942 25.42842925 11.859375 28.1015625 C12.40643823 29.60930672 12.95332465 31.1171151 13.5 32.625 C13.88236816 33.66140625 13.88236816 33.66140625 14.27246094 34.71875 C15.46960011 38.06335201 16 40.38947891 16 44 C6.1 44 -3.8 44 -14 44 C-12.6500174 37.92507828 -11.22083019 32.28587881 -9.1796875 26.46484375 C-8.91616486 25.70071671 -8.65264221 24.93658966 -8.38113403 24.14930725 C-7.55036362 21.74374715 -6.71281809 19.34061338 -5.875 16.9375 C-5.30553688 15.29247435 -4.73652246 13.6472933 -4.16796875 12.00195312 C-2.78381833 7.99948968 -1.39359276 3.99918506 0 0 Z " fill="#F6F5F6" transform="translate(619,847)"/>
<path d="M0 0 C3.196875 -0.061875 6.39375 -0.12375 9.6875 -0.1875 C11.18543091 -0.22846802 11.18543091 -0.22846802 12.71362305 -0.27026367 C17.59458086 -0.3159996 21.11307613 -0.31735483 25 3 C27.86248156 7.7708026 28.49741835 11.41637833 27.64453125 16.91796875 C26.40138984 20.9336922 23.61115472 23.05179854 20.10253906 25.11669922 C17.77689648 26.09372835 16.18275432 26.2311822 13.671875 26.1953125 C12.9509668 26.19031738 12.23005859 26.18532227 11.48730469 26.18017578 C10.58399414 26.16196777 9.68068359 26.14375977 8.75 26.125 C4.41875 26.063125 4.41875 26.063125 0 26 C0 17.42 0 8.84 0 0 Z " fill="#FAFAFB" transform="translate(1008,978)"/>
<path d="M0 0 C1.98 0 3.96 0 6 0 C6.01981934 0.91813477 6.03963867 1.83626953 6.06005859 2.78222656 C6.13826955 6.19671825 6.22496584 9.61077702 6.31738281 13.02490234 C6.35560666 14.50105536 6.39047103 15.97729943 6.421875 17.45361328 C6.46766986 19.57878094 6.52563837 21.70332542 6.5859375 23.828125 C6.6173584 25.1059082 6.6487793 26.38369141 6.68115234 27.70019531 C6.97562192 30.74770742 7.33478915 32.47686163 9 35 C12.52075329 37.70827176 16.75669145 37.50690777 21 37 C24.94516844 35.73456861 26.51024347 34.82881874 28.625 31.25 C30.93797451 25.49105896 30.5753075 19.17538829 30.6875 13.0625 C30.72166016 11.80630859 30.75582031 10.55011719 30.79101562 9.25585938 C30.87313114 6.17066214 30.94240299 3.08573616 31 0 C32.98 0 34.96 0 37 0 C37 14.19 37 28.38 37 43 C35.02 43 33.04 43 31 43 C30.505 40.525 30.505 40.525 30 38 C28.9171875 38.928125 28.9171875 38.928125 27.8125 39.875 C22.54806662 43.85257188 18.89165016 44.37569125 12.43359375 43.53125 C7.31857496 42.41464879 4.73816212 40.09300888 1.86035156 35.83178711 C-0.26896812 31.96466093 -0.46182749 28.74876127 -0.390625 24.31640625 C-0.38496521 23.61603745 -0.37930542 22.91566864 -0.37347412 22.19407654 C-0.3512922 19.98282055 -0.30113806 17.77325627 -0.25 15.5625 C-0.22991115 14.05275797 -0.21166458 12.54299025 -0.1953125 11.03320312 C-0.15148947 7.35493001 -0.08259341 3.67763044 0 0 Z " fill="#564A4A" transform="translate(598,989)"/>
<path d="M0 0 C3.125 -0.5625 3.125 -0.5625 7 0 C9.62895212 2.54906684 11.20104104 5.83831033 13 9 C14.43664652 11.36336247 15.88895353 13.71676244 17.34082031 16.07080078 C19.57756267 19.70354943 21.78941448 23.35129464 24 27 C26.64123255 24.60716849 28.28777219 22.04268296 30.06640625 18.96484375 C30.9181543 17.50401367 30.9181543 17.50401367 31.78710938 16.01367188 C32.37298828 14.99853516 32.95886719 13.98339844 33.5625 12.9375 C34.72770473 10.92417904 35.89554867 8.91238252 37.06640625 6.90234375 C37.8389978 5.56417603 37.8389978 5.56417603 38.62719727 4.19897461 C40 2 40 2 42 0 C45.625 -0.125 45.625 -0.125 49 0 C44.43960954 8.08984159 39.7792695 16.0869135 34.859375 23.96484375 C33.93898438 25.46724609 33.93898438 25.46724609 33 27 C32.278125 28.00289062 31.55625 29.00578125 30.8125 30.0390625 C27.80535494 35.34247989 28.32117789 41.5070877 28.25 47.4375 C28.20552734 49.25024414 28.20552734 49.25024414 28.16015625 51.09960938 C28.08979587 54.06647208 28.03692979 57.03256424 28 60 C25.69 60 23.38 60 21 60 C21.01160156 59.28569824 21.02320313 58.57139648 21.03515625 57.83544922 C21.40028811 38.5852546 21.40028811 38.5852546 13.23388672 21.6953125 C11.32497559 19.07254264 9.65915536 16.30736079 7.96069336 13.54541016 C6.69234672 11.48443381 5.3995809 9.4408049 4.1015625 7.3984375 C2.59064245 4.95512812 1.20142368 2.60088423 0 0 Z " fill="#5F5453" transform="translate(500,972)"/>
<path d="M0 0 C1.98 0 3.96 0 6 0 C6.01458252 0.8470752 6.02916504 1.69415039 6.04418945 2.56689453 C6.10551177 5.73181934 6.17971352 8.89611504 6.26245117 12.06054688 C6.29555386 13.4259925 6.32363086 14.79157013 6.34643555 16.15722656 C6.38024991 18.12853224 6.43408286 20.09946191 6.48828125 22.0703125 C6.51446533 23.25383301 6.54064941 24.43735352 6.56762695 25.65673828 C7.04883843 29.37763603 8.04027309 31.81345687 10 35 C14.04314376 37.69542917 17.25108711 37.66452365 22 37 C26.07129188 34.92734231 28.38224475 33.26109251 30 29 C30.36651541 25.80558548 30.36651541 25.80558548 30.4140625 22.265625 C30.45273437 20.97011719 30.49140625 19.67460938 30.53125 18.33984375 C30.56270267 16.97656716 30.59395007 15.61328582 30.625 14.25 C30.66320469 12.87106972 30.70225787 11.49216266 30.7421875 10.11328125 C30.83648004 6.74232282 30.9220822 3.37137022 31 0 C32.98 0 34.96 0 37 0 C37 13.86 37 27.72 37 42 C35.35 42 33.7 42 32 42 C31.505 39.525 31.505 39.525 31 37 C30.21625 37.804375 29.4325 38.60875 28.625 39.4375 C24.69681036 43.27216131 22.6063189 43.18191013 17.1875 43.25 C15.35251953 43.28867188 15.35251953 43.28867188 13.48046875 43.328125 C9.73472749 42.97499114 7.94894143 42.28661234 5 40 C0.63183292 34.46270585 -0.12764162 29.10228875 -0.09765625 22.265625 C-0.09443359 20.97011719 -0.09121094 19.67460938 -0.08789062 18.33984375 C-0.07953598 16.97656183 -0.07107104 15.61328058 -0.0625 14.25 C-0.05748168 12.87109535 -0.05291935 11.49218896 -0.04882812 10.11328125 C-0.03704093 6.74214341 -0.02058635 3.37109372 0 0 Z " fill="#564A49" transform="translate(760,989)"/>
<path d="M0 0 C3.88288745 3.68874307 6.29085589 6.66609025 6.95410156 12.08544922 C6.95347698 13.45035918 6.93139434 14.81538641 6.890625 16.1796875 C6.88496521 16.9036673 6.87930542 17.62764709 6.87347412 18.37356567 C6.85123667 20.66640788 6.80106987 22.95763716 6.75 25.25 C6.72991841 26.81247729 6.71167055 28.37497929 6.6953125 29.9375 C6.65141416 33.7506133 6.58247971 37.56253402 6.5 41.375 C4.85 41.375 3.2 41.375 1.5 41.375 C1.48541748 40.49239502 1.47083496 39.60979004 1.45581055 38.70043945 C1.39457933 35.41061357 1.3203967 32.1216007 1.23754883 28.83227539 C1.20439443 27.41148798 1.17633308 25.99057187 1.15356445 24.56958008 C1.11984153 22.5210918 1.06752255 20.4737728 1.01171875 18.42578125 C0.98553467 17.19512939 0.95935059 15.96447754 0.93237305 14.6965332 C0.46963804 11.14175641 -0.37115169 9.22785803 -2.5 6.375 C-6.31136256 3.90882423 -9.99362991 4.16329609 -14.34375 4.7578125 C-17.70231429 5.71914069 -19.39568506 7.67884648 -21.5 10.375 C-22.94962183 13.27424366 -22.72126481 15.89800355 -22.81640625 19.1328125 C-22.83718735 19.79586395 -22.85796844 20.45891541 -22.87937927 21.14205933 C-22.94479231 23.26126694 -23.00372105 25.380599 -23.0625 27.5 C-23.10569309 28.93621081 -23.14930764 30.37240902 -23.19335938 31.80859375 C-23.30046499 35.33059594 -23.40175575 38.85273825 -23.5 42.375 C-25.48 42.375 -27.46 42.375 -29.5 42.375 C-29.5 28.185 -29.5 13.995 -29.5 -0.625 C-27.52 -0.625 -25.54 -0.625 -23.5 -0.625 C-23.5 0.695 -23.5 2.015 -23.5 3.375 C-22.84 3.375 -22.18 3.375 -21.5 3.375 C-21.5 2.715 -21.5 2.055 -21.5 1.375 C-15.04837064 -2.92608624 -6.99596623 -3.24812718 0 0 Z " fill="#554948" transform="translate(1191.5,989.625)"/>
<path d="M0 0 C5.22673264 3.08122033 5.22673264 3.08122033 6.24609375 6.1953125 C6.34148438 6.79859375 6.436875 7.401875 6.53515625 8.0234375 C4.88515625 8.6834375 3.23515625 9.3434375 1.53515625 10.0234375 C1.06078125 9.3840625 0.58640625 8.7446875 0.09765625 8.0859375 C-3.51792704 5.17583387 -6.8870441 4.82184632 -11.46484375 5.0234375 C-14.12328592 5.86863883 -14.12328592 5.86863883 -15.46484375 8.0234375 C-15.79882162 11.14930625 -15.79882162 11.14930625 -15.46484375 14.0234375 C-11.53956962 16.20414535 -7.70583449 17.593063 -3.40234375 18.8984375 C4.8757205 21.65436448 4.8757205 21.65436448 7.53515625 26.0234375 C8.39696631 30.81478519 8.27322108 34.63587561 5.97265625 38.9609375 C1.98717203 42.3332703 -1.71980897 43.83307007 -6.90234375 44.3984375 C-12.74771325 43.78313545 -16.91465529 42.25726097 -21.52734375 38.5859375 C-23.46484375 36.0234375 -23.46484375 36.0234375 -23.27734375 33.7109375 C-22.46484375 32.0234375 -22.46484375 32.0234375 -20.77734375 31.2109375 C-20.01421875 31.1490625 -19.25109375 31.0871875 -18.46484375 31.0234375 C-15.83984375 33.3984375 -15.83984375 33.3984375 -13.46484375 36.0234375 C-9.67012187 37.92079844 -5.05314335 37.43069381 -1.02734375 36.3984375 C1.3545101 34.30240611 1.26957833 32.07758362 1.53515625 29.0234375 C-1.72212921 26.21104956 -4.70575742 25.23736933 -8.83984375 24.1484375 C-14.23954903 22.57099551 -17.60472631 21.09800591 -21.46484375 17.0234375 C-23.21781917 13.51748665 -23.15623773 9.83890799 -22.46484375 6.0234375 C-17.52584091 -1.54136432 -8.22947995 -3.26049126 0 0 Z " fill="#534846" transform="translate(830.46484375,988.9765625)"/>
<path d="M0 0 C13.86 0 27.72 0 42 0 C42 1.98 42 3.96 42 6 C36.06 6 30.12 6 24 6 C24 23.82 24 41.64 24 60 C22.02 60 20.04 60 18 60 C18 41.85 18 23.7 18 5 C12.06 5 6.12 5 0 5 C0 3.35 0 1.7 0 0 Z " fill="#534847" transform="translate(691,972)"/>
<path d="M0 0 C0 3.96 0 7.92 0 12 C3.96 12 7.92 12 12 12 C12 13.65 12 15.3 12 17 C8.04 17 4.08 17 0 17 C0.11369916 21.58387159 0.24046184 26.16673351 0.375 30.75 C0.4059375 32.05195312 0.436875 33.35390625 0.46875 34.6953125 C0.50742188 35.94570313 0.54609375 37.19609375 0.5859375 38.484375 C0.6173584 39.63647461 0.6487793 40.78857422 0.68115234 41.97558594 C0.98612884 44.86842575 1.37375219 46.6093012 3 49 C5.18541552 49.6993514 5.18541552 49.6993514 7.625 49.75 C8.85089844 49.83507813 8.85089844 49.83507813 10.1015625 49.921875 C10.72804688 49.94765625 11.35453125 49.9734375 12 50 C12 51.65 12 53.3 12 55 C2.09305994 55.62460568 2.09305994 55.62460568 -2.0625 53.25 C-5.76875572 48.9459611 -6.24516518 45.94883041 -6.1953125 40.265625 C-6.18886719 38.97011719 -6.18242188 37.67460938 -6.17578125 36.33984375 C-6.15907193 34.97655981 -6.14214206 33.61327856 -6.125 32.25 C-6.1149634 30.87110015 -6.10583873 29.49219335 -6.09765625 28.11328125 C-6.07408093 24.74201118 -6.0411727 21.37109364 -6 18 C-8.97 18 -11.94 18 -15 18 C-15 15.69 -15 13.38 -15 11 C-12.03 11 -9.06 11 -6 11 C-6 7.7 -6 4.4 -6 1 C-3 0 -3 0 0 0 Z " fill="#594E4E" transform="translate(1140,977)"/>
<path d="M0 0 C0 3.96 0 7.92 0 12 C3.96 12 7.92 12 12 12 C12 13.98 12 15.96 12 18 C8.04 18 4.08 18 0 18 C0.33 28.23 0.66 38.46 1 49 C4.63 49.33 8.26 49.66 12 50 C12 51.65 12 53.3 12 55 C1.33160718 55.76567413 1.33160718 55.76567413 -1.875 53.921875 C-3.1875 52.5625 -3.1875 52.5625 -5 50 C-5.33 49.67 -5.66 49.34 -6 49 C-6.0883967 46.6243148 -6.11530305 44.27791326 -6.09765625 41.90234375 C-6.0962413 41.19348526 -6.09482635 40.48462677 -6.09336853 39.75428772 C-6.08775443 37.48198288 -6.07519963 35.20977525 -6.0625 32.9375 C-6.05748681 31.40039204 -6.05292359 29.86328255 -6.04882812 28.32617188 C-6.03778042 24.55074358 -6.02050641 20.77538829 -6 17 C-8.97 17 -11.94 17 -15 17 C-15 15.35 -15 13.7 -15 12 C-12.03 12 -9.06 12 -6 12 C-6 8.37 -6 4.74 -6 1 C-4 0 -4 0 0 0 Z " fill="#625655" transform="translate(857,977)"/>
<path d="M0 0 C0 1.98 0 3.96 0 6 C-1.0725 6.2475 -2.145 6.495 -3.25 6.75 C-7.62676261 8.20892087 -9.93466288 9.86932575 -12 14 C-12.15495763 16.24974161 -12.25010928 18.50371536 -12.31640625 20.7578125 C-12.33718735 21.42086395 -12.35796844 22.08391541 -12.37937927 22.76705933 C-12.44479231 24.88626694 -12.50372105 27.005599 -12.5625 29.125 C-12.60569309 30.56121081 -12.64930764 31.99740902 -12.69335938 33.43359375 C-12.80046499 36.95559594 -12.90175575 40.47773825 -13 44 C-14.98 44 -16.96 44 -19 44 C-19 29.81 -19 15.62 -19 1 C-17.02 1 -15.04 1 -13 1 C-12.67 2.32 -12.34 3.64 -12 5 C-10.824375 4.0409375 -10.824375 4.0409375 -9.625 3.0625 C-6.07054312 0.26971245 -4.44991744 -0.11710309 0 0 Z " fill="#584C4B" transform="translate(1121,988)"/>
<path d="M0 0 C0 1.98 0 3.96 0 6 C-1.0725 6.2475 -2.145 6.495 -3.25 6.75 C-7.62676261 8.20892087 -9.93466288 9.86932575 -12 14 C-12.15495763 16.24974161 -12.25010928 18.50371536 -12.31640625 20.7578125 C-12.33718735 21.42086395 -12.35796844 22.08391541 -12.37937927 22.76705933 C-12.44479231 24.88626694 -12.50372105 27.005599 -12.5625 29.125 C-12.60569309 30.56121081 -12.64930764 31.99740902 -12.69335938 33.43359375 C-12.80046499 36.95559594 -12.90175575 40.47773825 -13 44 C-14.98 44 -16.96 44 -19 44 C-19 29.81 -19 15.62 -19 1 C-17.02 1 -15.04 1 -13 1 C-12.67 2.32 -12.34 3.64 -12 5 C-10.824375 4.0409375 -10.824375 4.0409375 -9.625 3.0625 C-6.07054312 0.26971245 -4.44991744 -0.11710309 0 0 Z " fill="#4E4342" transform="translate(1278,988)"/>
<path d="M0 0 C4.54328212 2.58425221 7.05169891 5.01240391 8.81640625 10.0859375 C8.81640625 11.0759375 8.81640625 12.0659375 8.81640625 13.0859375 C-1.41359375 13.0859375 -11.64359375 13.0859375 -22.18359375 13.0859375 C-21.17383906 8.03716404 -19.82350564 5.5094222 -16.18359375 2.0859375 C-11.04375338 -1.34062274 -5.75175652 -2.40771203 0 0 Z " fill="#F8F8F8" transform="translate(1235.18359375,993.9140625)"/>
<path d="M0 0 C3.81570296 2.08937521 5.84471305 4.43942611 7.8125 8.375 C7.8125 9.695 7.8125 11.015 7.8125 12.375 C-2.4175 12.375 -12.6475 12.375 -23.1875 12.375 C-22.17867858 7.3308929 -20.83049209 4.79214621 -17.1875 1.375 C-11.4174588 -2.38807035 -6.27416716 -2.78205186 0 0 Z " fill="#F8F8F8" transform="translate(902.1875,994.625)"/>
<path d="M0 0 C0 1.98 0 3.96 0 6 C-0.92232422 6.25523437 -0.92232422 6.25523437 -1.86328125 6.515625 C-6.81403451 7.94906249 -6.81403451 7.94906249 -11 10.8125 C-13.01305358 15.2160547 -13.13644488 20.05410691 -13.31640625 24.8359375 C-13.35830078 25.89941406 -13.40019531 26.96289062 -13.44335938 28.05859375 C-13.48267578 29.15300781 -13.52199219 30.24742187 -13.5625 31.375 C-13.60568359 32.49261719 -13.64886719 33.61023438 -13.69335938 34.76171875 C-13.79897411 37.50770199 -13.9010797 40.25376881 -14 43 C-15.65 43 -17.3 43 -19 43 C-19 29.14 -19 15.28 -19 1 C-17.35 1 -15.7 1 -14 1 C-13.67 2.65 -13.34 4.3 -13 6 C-12.05125 5.195625 -11.1025 4.39125 -10.125 3.5625 C-6.61404615 0.58582173 -4.65870626 -0.12259753 0 0 Z " fill="#4E4140" transform="translate(754,988)"/>
<path d="M0 0 C0 1.98 0 3.96 0 6 C-1.2375 6.226875 -2.475 6.45375 -3.75 6.6875 C-7.93824338 7.72529482 -9.71348465 9.25011483 -12 13 C-13.07955212 16.23865635 -13.20441741 18.79155838 -13.31640625 22.19921875 C-13.35830078 23.40771484 -13.40019531 24.61621094 -13.44335938 25.86132812 C-13.48267578 27.12396484 -13.52199219 28.38660156 -13.5625 29.6875 C-13.62727539 31.59885742 -13.62727539 31.59885742 -13.69335938 33.54882812 C-13.7995486 36.69910852 -13.90159533 39.84946839 -14 43 C-15.65 43 -17.3 43 -19 43 C-19 29.14 -19 15.28 -19 1 C-17.35 1 -15.7 1 -14 1 C-13.67 2.65 -13.34 4.3 -13 6 C-12.236875 5.195625 -11.47375 4.39125 -10.6875 3.5625 C-7.10418882 0.14585445 -4.77479486 -0.12904851 0 0 Z " fill="#4F4141" transform="translate(666,988)"/>
<path d="M0 0 C6.78393752 0.542715 10.75128435 2.50817996 15.3125 7.5625 C18.65349926 12.38838782 18.59778705 17.32523275 18 23 C16.22072265 28.8766989 13.07428929 32.65096907 8 36 C4.625 36.8125 4.625 36.8125 2 37 C2 35 2 33 2 31 C3.3921875 30.4740625 3.3921875 30.4740625 4.8125 29.9375 C8.05469655 27.96675308 9.30926624 26.60172436 10.60546875 23.0390625 C11.53156931 18.25268141 10.51915758 13.55747274 9 9 C4.37105889 6.22829188 -1.07319509 6.55272907 -6.3125 6.375 C-7.24384766 6.33632813 -8.17519531 6.29765625 -9.13476562 6.2578125 C-11.42298407 6.16393687 -13.71120295 6.07825491 -16 6 C-16 5.67 -16 5.34 -16 5 C-9.73 5 -3.46 5 3 5 C3 3.68 3 2.36 3 1 C2.01 0.67 1.02 0.34 0 0 Z " fill="#544948" transform="translate(1024,972)"/>
<path d="M0 0 C1.134375 0.020625 2.26875 0.04125 3.4375 0.0625 C-1.15459925 8.20859096 -5.86293068 16.25049664 -10.796875 24.1953125 C-12.79771046 27.44445681 -14.70303478 30.73095815 -16.5625 34.0625 C-17.5525 33.7325 -18.5425 33.4025 -19.5625 33.0625 C-19.5625 32.0725 -19.5625 31.0825 -19.5625 30.0625 C-20.2225 29.4025 -20.8825 28.7425 -21.5625 28.0625 C-21.25699219 27.62164063 -20.95148437 27.18078125 -20.63671875 26.7265625 C-16.28112814 20.32200391 -12.26537073 13.72198193 -8.25854492 7.09619141 C-7.79552979 6.33226074 -7.33251465 5.56833008 -6.85546875 4.78125 C-6.4380542 4.08966797 -6.02063965 3.39808594 -5.59057617 2.68554688 C-3.73820884 -0.23882691 -3.93273053 0.06899527 0 0 Z " fill="#534847" transform="translate(545.5625,971.9375)"/>
<path d="M0 0 C0.66 0.33 1.32 0.66 2 1 C2 11.89 2 22.78 2 34 C0.35 34 -1.3 34 -3 34 C-3.33 23.44 -3.66 12.88 -4 2 C-2.68 1.34 -1.36 0.68 0 0 Z " fill="#4D4140" transform="translate(1196,997)"/>
<path d="M0 0 C3.62874485 3.28750967 4.94966501 7.09870645 6.75 11.5625 C7.07871094 12.34302734 7.40742188 13.12355469 7.74609375 13.92773438 C8.20435547 15.04825195 8.20435547 15.04825195 8.671875 16.19140625 C8.9512793 16.87404541 9.23068359 17.55668457 9.51855469 18.26000977 C10 20 10 20 9 22 C8.5153125 21.62488281 8.030625 21.24976563 7.53125 20.86328125 C2.8444442 17.28508528 -1.94671516 14.03734674 -7 11 C-6.34 10.67 -5.68 10.34 -5 10 C-4.5359375 8.515 -4.5359375 8.515 -4.0625 7 C-3.711875 6.01 -3.36125 5.02 -3 4 C-2.01 3.67 -1.02 3.34 0 3 C0 2.01 0 1.02 0 0 Z " fill="#599ACA" transform="translate(279,911)"/>
<path d="M0 0 C3.125 -0.5625 3.125 -0.5625 7 0 C9.5313268 2.6834498 11.19498598 5.8004272 13 9 C13.97528395 10.4817296 14.95414566 11.961114 15.9375 13.4375 C17.21484375 15.37109375 17.21484375 15.37109375 18 17 C17.67 17.66 17.34 18.32 17 19 C14.4375 19.625 14.4375 19.625 12 20 C10.37276975 17.41804795 8.74814795 14.83451657 7.125 12.25 C6.66480469 11.52039063 6.20460938 10.79078125 5.73046875 10.0390625 C5.28574219 9.33007812 4.84101563 8.62109375 4.3828125 7.890625 C3.97434082 7.24125977 3.56586914 6.59189453 3.14501953 5.92285156 C1.99408567 3.99006796 0.98041811 2.02383498 0 0 Z " fill="#544847" transform="translate(500,972)"/>
<path d="M0 0 C0.33 0 0.66 0 1 0 C1 8.58 1 17.16 1 26 C-0.65 26 -2.3 26 -4 26 C-4 18.08 -4 10.16 -4 2 C-3.01 2 -2.02 2 -1 2 C-0.67 1.34 -0.34 0.68 0 0 Z " fill="#4C403E" transform="translate(651,1005)"/>
<path d="M0 0 C1.65 0.33 3.3 0.66 5 1 C5.55353075 12.52164009 5.55353075 12.52164009 2 18 C1.67 17.34 1.34 16.68 1 16 C-2.3 16 -5.6 16 -9 16 C-9 14.35 -9 12.7 -9 11 C-6.03 11 -3.06 11 0 11 C0 7.37 0 3.74 0 0 Z " fill="#4D4240" transform="translate(851,978)"/>
<path d="M0 0 C5.18971573 2.94870212 7.51444131 5.53177087 10 11 C9 14 9 14 7 15 C6.67 15.99 6.34 16.98 6 18 C-4.56 18 -15.12 18 -26 18 C-26 17.67 -26 17.34 -26 17 C-15.77 17 -5.54 17 5 17 C1.87351576 8.51453668 1.87351576 8.51453668 -2 5 C-1.34 3.35 -0.68 1.7 0 0 Z " fill="#635A59" transform="translate(1239,990)"/>
<path d="M0 0 C0.70125 0.78375 1.4025 1.5675 2.125 2.375 C5.77213246 5.70499051 8.20991997 6.10693423 13 7 C12.01 8.65 11.02 10.3 10 12 C11.65 12 13.3 12 15 12 C15 12.33 15 12.66 15 13 C7.85289134 13.44669429 2.59422072 12.06478792 -3.0625 7.5625 C-5 5 -5 5 -4.9375 2.75 C-3.65873652 0.36297483 -2.67659476 0 0 0 Z " fill="#594E4D" transform="translate(812,1020)"/>
<path d="M0 0 C0.07347656 1.86591797 0.07347656 1.86591797 0.1484375 3.76953125 C0.53468998 12.66496166 1.05601275 21.28341201 3 30 C3.75 33.5625 3.75 33.5625 4 36 C3.34 36.66 2.68 37.32 2 38 C-2.5691466 15.19872014 -2.5691466 15.19872014 -3 6 C-3.55429688 6.37253906 -4.10859375 6.74507812 -4.6796875 7.12890625 C-5.76636719 7.83853516 -5.76636719 7.83853516 -6.875 8.5625 C-7.59429687 9.03816406 -8.31359375 9.51382813 -9.0546875 10.00390625 C-9.69664063 10.33261719 -10.33859375 10.66132812 -11 11 C-11.66 10.67 -12.32 10.34 -13 10 C-3.24657534 0 -3.24657534 0 0 0 Z " fill="#72A4CA" transform="translate(131,719)"/>
<path d="M0 0 C2.54481859 0.98286313 3.7689718 1.60250703 5.16015625 3.99609375 C6.14253564 6.65404664 7.09829566 9.31344056 8 12 C8.30292969 12.85078125 8.60585938 13.7015625 8.91796875 14.578125 C11.42268582 22.43329403 11.29753022 29.83444834 11 38 C10.34 38 9.68 38 9 38 C8.87625 39.175625 8.7525 40.35125 8.625 41.5625 C8.04422104 46.23362219 7.12038712 50.75922575 5 55 C4.34 55 3.68 55 3 55 C3.19335938 54.39414062 3.38671875 53.78828125 3.5859375 53.1640625 C8.82160556 36.31661577 10.38678122 20.55913053 2.3125 4.25 C1.55388309 2.82675411 0.78773577 1.40733821 0 0 Z " fill="#FEF8DC" transform="translate(248,687)"/>
<path d="M0 0 C0.33 0 0.66 0 1 0 C0.88382356 1.37577361 0.75654223 2.75061045 0.625 4.125 C0.55539063 4.89070312 0.48578125 5.65640625 0.4140625 6.4453125 C0 9 0 9 -1.01953125 11.83984375 C-3.60387041 20.16944686 -2.91824567 29.31421041 1 37 C1.81011947 40.30921529 2.4257817 43.64251183 3 47 C-2.17746413 42.60879833 -3.58538429 35.22727757 -4.22460938 28.70996094 C-4.75247805 19.28865255 -4.63674032 9.85631063 -1 1 C-0.67 0.67 -0.34 0.34 0 0 Z " fill="#E59E38" transform="translate(156,695)"/>
<path d="M0 0 C0.33 0 0.66 0 1 0 C1.33 1.65 1.66 3.3 2 5 C2.66 5 3.32 5 4 5 C4 6.65 4 8.3 4 10 C4.99 10.33 5.98 10.66 7 11 C4.03 13.97 1.06 16.94 -2 20 C-3.13082641 15.47669436 -2.48536209 12.19544634 -1.5625 7.75 C-1.41490234 7.00492188 -1.26730469 6.25984375 -1.11523438 5.4921875 C-0.7511306 3.65992335 -0.37658591 1.82973947 0 0 Z " fill="#D03D28" transform="translate(314,973)"/>
<path d="M0 0 C0 1.98 0 3.96 0 6 C-1.258125 6.28875 -2.51625 6.5775 -3.8125 6.875 C-6.8539399 7.57303539 -8.30669878 8.20446585 -11 10 C-11 9.34 -11 8.68 -11 8 C-11.66 8 -12.32 8 -13 8 C-12.03842826 4.44218458 -11.34112089 3.21983346 -8.1875 1.1875 C-5.15461027 0.05759991 -3.18921789 -0.28140158 0 0 Z " fill="#574D4B" transform="translate(666,988)"/>
<path d="M0 0 C0.33 0 0.66 0 1 0 C1 2.31 1 4.62 1 7 C0.34 7 -0.32 7 -1 7 C-0.85888132 10.45854214 -0.71121691 13.91677691 -0.5625 17.375 C-0.52318359 18.34050781 -0.48386719 19.30601562 -0.44335938 20.30078125 C-0.17019178 26.56262312 0.30323128 32.77097309 1 39 C-3.0288669 32.95669965 -3.35743972 26.72407658 -3.3125 19.6875 C-3.31121094 18.8524292 -3.30992187 18.0173584 -3.30859375 17.15698242 C-3.21382564 11.07109287 -2.43391307 5.63566776 0 0 Z " fill="#3CA545" transform="translate(188,975)"/>
<path d="M0 0 C6.625 0.75 6.625 0.75 10 3 C10.6875 6.625 10.6875 6.625 11 10 C6.25 8.125 6.25 8.125 4 7 C2.4804236 6.84876169 0.95527498 6.75118307 -0.5703125 6.68359375 C-1.46621094 6.64169922 -2.36210938 6.59980469 -3.28515625 6.55664062 C-4.22230469 6.51732422 -5.15945313 6.47800781 -6.125 6.4375 C-7.06988281 6.39431641 -8.01476562 6.35113281 -8.98828125 6.30664062 C-11.32537092 6.20040928 -13.6625683 6.09836824 -16 6 C-16 5.67 -16 5.34 -16 5 C-9.73 5 -3.46 5 3 5 C3 3.68 3 2.36 3 1 C2.01 0.67 1.02 0.34 0 0 Z " fill="#665C5B" transform="translate(1024,972)"/>
<path d="M0 0 C0.33 1.32 0.66 2.64 1 4 C0.34 4 -0.32 4 -1 4 C-0.87625 5.8253125 -0.87625 5.8253125 -0.75 7.6875 C-0.72649148 11.04921886 -0.77218582 11.72235147 -3 14.4375 C-5.60994394 17.78149067 -5.36786428 19.98999869 -5.23828125 24.109375 C-5.19510181 26.00927735 -5.19510181 26.00927735 -4 27 C-3.85884839 29.67058851 -3.95752893 32.32432238 -4 35 C-8.2389861 28.64152086 -7.5579587 21.3590229 -7 14 C-6.07356248 10.69784645 -4.7651117 7.92919971 -3 5 C-2.4225 3.989375 -1.845 2.97875 -1.25 1.9375 C-0.8375 1.298125 -0.425 0.65875 0 0 Z " fill="#D33E2B" transform="translate(293,704)"/>
<path d="M0 0 C1.86011719 -0.02126953 1.86011719 -0.02126953 3.7578125 -0.04296875 C6.875 0.1875 6.875 0.1875 8.875 2.1875 C6.90466797 2.22617187 6.90466797 2.22617187 4.89453125 2.265625 C3.1588215 2.32191829 1.4231457 2.37926535 -0.3125 2.4375 C-1.17681641 2.45167969 -2.04113281 2.46585938 -2.93164062 2.48046875 C-8.25859761 2.68456672 -11.2521732 3.18683231 -15.125 7.1875 C-15.785 7.8475 -16.445 8.5075 -17.125 9.1875 C-17.125 8.5275 -17.125 7.8675 -17.125 7.1875 C-19.105 8.5075 -21.085 9.8275 -23.125 11.1875 C-23.785 10.8575 -24.445 10.5275 -25.125 10.1875 C-16.90798049 3.74318774 -10.59462684 0.05529555 0 0 Z " fill="#CB4F3B" transform="translate(319.125,692.8125)"/>
<path d="M0 0 C6.93 0.495 6.93 0.495 14 1 C13.67 2.65 13.34 4.3 13 6 C9.04 6 5.08 6 1 6 C0.34 4.68 -0.32 3.36 -1 2 C-0.67 1.34 -0.34 0.68 0 0 Z " fill="#4E4141" transform="translate(887,1026)"/>
<path d="M0 0 C5.30918075 5.30918075 4.33486415 14.47533454 4.37109375 21.47851562 C4.37093262 22.16985596 4.37077148 22.86119629 4.37060547 23.57348633 C4.37501282 25.69366865 4.41151783 27.81182048 4.44921875 29.93164062 C4.45508241 31.29165964 4.45905482 32.6516884 4.4609375 34.01171875 C4.46915527 35.23334717 4.47737305 36.45497559 4.48583984 37.71362305 C3.91669454 41.56350494 2.65488577 43.22114941 0 46 C0.144375 45.030625 0.28875 44.06125 0.4375 43.0625 C2.50505512 28.46085185 2.55042928 14.57388161 0 0 Z " fill="#FFE7E0" transform="translate(353,882)"/>
<path d="M0 0 C0 1.32 0 2.64 0 4 C-3.21182149 5.90608098 -5.53882603 6.22266247 -9.25 6.125 C-10.14203125 6.10695313 -11.0340625 6.08890625 -11.953125 6.0703125 C-12.96632813 6.03550781 -12.96632813 6.03550781 -14 6 C-13 4 -13 4 -10 3 C-10 2.34 -10 1.68 -10 1 C-6.21812119 -0.83691257 -4.05431692 -1.15837626 0 0 Z " fill="#544847" transform="translate(579,1026)"/>
<path d="M0 0 C0 1.98 0 3.96 0 6 C-2.97 6.66 -5.94 7.32 -9 8 C-9.33 7.34 -9.66 6.68 -10 6 C-10.99 6.99 -11.98 7.98 -13 9 C-13.66 8.67 -14.32 8.34 -15 8 C-13.71064081 6.85157077 -12.41843421 5.70633773 -11.125 4.5625 C-10.04605469 3.60537109 -10.04605469 3.60537109 -8.9453125 2.62890625 C-5.83586921 0.02521578 -3.98594064 -0.10489317 0 0 Z " fill="#544948" transform="translate(754,988)"/>
<path d="M0 0 C0.33 0.66 0.66 1.32 1 2 C0.21625 2.845625 -0.5675 3.69125 -1.375 4.5625 C-4.16931023 7.87925917 -5.07512901 10.79604094 -6 15 C-7.32 15.33 -8.64 15.66 -10 16 C-10.12375 16.763125 -10.2475 17.52625 -10.375 18.3125 C-11 21 -11 21 -13 24 C-13.66 24 -14.32 24 -15 24 C-15 24.66 -15 25.32 -15 26 C-15.66 25.67 -16.32 25.34 -17 25 C-6.42553191 6.27659574 -6.42553191 6.27659574 0 0 Z " fill="#629CC7" transform="translate(112,736)"/>
<path d="M0 0 C-1.19625 0.474375 -2.3925 0.94875 -3.625 1.4375 C-4.29789063 1.70433594 -4.97078125 1.97117187 -5.6640625 2.24609375 C-11.23716293 4.04476998 -16.70820101 4.15553673 -22.5 4.125 C-23.60021484 4.13080078 -23.60021484 4.13080078 -24.72265625 4.13671875 C-28.92430334 4.12920239 -32.86141267 3.82509811 -37 3 C-37 2.67 -37 2.34 -37 2 C-34.54159395 1.97308315 -32.08348118 1.95320198 -29.625 1.9375 C-28.92632812 1.92912109 -28.22765625 1.92074219 -27.5078125 1.91210938 C-22.2265625 1.88671875 -22.2265625 1.88671875 -20 3 C-20 2.34 -20 1.68 -20 1 C-19.35933594 1.02320313 -18.71867187 1.04640625 -18.05859375 1.0703125 C-13.87067713 1.15769079 -10.08055509 1.22224294 -6.0625 -0.0625 C-3 -1 -3 -1 0 0 Z " fill="#2A9F34" transform="translate(260,1043)"/>
<path d="M0 0 C3.63 0 7.26 0 11 0 C11 1.65 11 3.3 11 5 C7.04 5 3.08 5 -1 5 C-1 2 -1 2 0 0 Z " fill="#4E4343" transform="translate(858,989)"/>
<path d="M0 0 C3.3 0.33 6.6 0.66 10 1 C10 2.65 10 4.3 10 6 C8.20866022 6.05391993 6.41686101 6.09275571 4.625 6.125 C3.62726563 6.14820313 2.62953125 6.17140625 1.6015625 6.1953125 C-1 6 -1 6 -3 4 C-1.68 4 -0.36 4 1 4 C0.34 3.67 -0.32 3.34 -1 3 C-0.67 2.01 -0.34 1.02 0 0 Z " fill="#584E4D" transform="translate(1142,1026)"/>
<path d="M0 0 C0.33 0 0.66 0 1 0 C1.33 8.91 1.66 17.82 2 27 C0.35 27.66 -1.3 28.32 -3 29 C-3.99 27.68 -4.98 26.36 -6 25 C-5.34 25 -4.68 25 -4 25 C-4 24.01 -4 23.02 -4 22 C-3.01 22.33 -2.02 22.66 -1 23 C-0.67 15.41 -0.34 7.82 0 0 Z " fill="#594E4E" transform="translate(962,972)"/>
<path d="M0 0 C11.1157015 -0.53213465 20.93818337 1.19776934 31 6 C31 6.33 31 6.66 31 7 C23.70588235 7.5030426 23.70588235 7.5030426 20.28125 5.0625 C16.17287217 2.48009108 12.8769352 2.13659812 8.125 1.75 C7.34125 1.67265625 6.5575 1.5953125 5.75 1.515625 C3.83473571 1.32876995 1.91750263 1.16228307 0 1 C0 0.67 0 0.34 0 0 Z " fill="#36A440" transform="translate(232,942)"/>
<path d="M0 0 C6.08233706 0.67581523 12.01314152 1.73638028 18 3 C18 3.33 18 3.66 18 4 C15.03 4 12.06 4 9 4 C9 4.66 9 5.32 9 6 C9.639375 6.28875 10.27875 6.5775 10.9375 6.875 C13 8 13 8 14 10 C10.67312232 8.45315734 7.75296022 6.54045021 4.75 4.4375 C3.85796875 3.81746094 2.9659375 3.19742188 2.046875 2.55859375 C1.37140625 2.04425781 0.6959375 1.52992188 0 1 C0 0.67 0 0.34 0 0 Z " fill="#CC4733" transform="translate(201,799)"/>
<path d="M0 0 C0.59280762 0.0714624 1.18561523 0.1429248 1.79638672 0.21655273 C8.26434122 0.93738278 14.62130583 1.12187361 21.125 1.0625 C22.08148438 1.05798828 23.03796875 1.05347656 24.0234375 1.04882812 C26.34902758 1.03720017 28.6744776 1.02086102 31 1 C24.8262986 5.11580093 16.19799944 4.55798445 9 4 C5.88102608 3.24441758 2.95256665 2.25260403 0 1 C0 0.67 0 0.34 0 0 Z " fill="#C3EEC7" transform="translate(219,1045)"/>
<path d="M0 0 C-0.66 0.4125 -1.32 0.825 -2 1.25 C-2.66 1.8275 -3.32 2.405 -4 3 C-4 4.32 -4 5.64 -4 7 C-4.99 7.33 -5.98 7.66 -7 8 C-7 7.34 -7 6.68 -7 6 C-11.41522109 7.26974972 -11.41522109 7.26974972 -15 10 C-15 7 -15 7 -13.57421875 5.4296875 C-12.95160156 4.91664063 -12.32898438 4.40359375 -11.6875 3.875 C-11.07261719 3.35679687 -10.45773437 2.83859375 -9.82421875 2.3046875 C-6.59664387 -0.00368511 -3.84040541 -0.10379474 0 0 Z " fill="#5A4F4E" transform="translate(893,988)"/>
<path d="M0 0 C1.22589844 0.01353516 1.22589844 0.01353516 2.4765625 0.02734375 C3.41628906 0.04474609 3.41628906 0.04474609 4.375 0.0625 C4.375 0.7225 4.375 1.3825 4.375 2.0625 C3.715 2.0625 3.055 2.0625 2.375 2.0625 C2.045 2.7225 1.715 3.3825 1.375 4.0625 C1.045 4.3925 0.715 4.7225 0.375 5.0625 C2.025 5.0625 3.675 5.0625 5.375 5.0625 C5.375 5.3925 5.375 5.7225 5.375 6.0625 C-2.05357143 6.20535714 -2.05357143 6.20535714 -5.625 5.0625 C-5.955 3.7425 -6.285 2.4225 -6.625 1.0625 C-4.21954362 -0.14022819 -2.67503047 -0.03821472 0 0 Z " fill="#4E4240" transform="translate(564.625,1026.9375)"/>
<path d="M0 0 C0 1.98 0 3.96 0 6 C-2.64 6.66 -5.28 7.32 -8 8 C-7.74438677 5.6568787 -7.40729228 3.32156597 -7 1 C-4.53721199 -0.231394 -2.7204945 -0.07159196 0 0 Z " fill="#564B4B" transform="translate(1278,988)"/>
<path d="M0 0 C0.33 0.99 0.66 1.98 1 3 C-0.71866032 4.9684831 -2.44884125 6.9243097 -4.1875 8.875 C-4.67025391 9.43058594 -5.15300781 9.98617187 -5.65039062 10.55859375 C-8.52249465 13.75838749 -10.74502322 15.77095735 -15 17 C-10.10995345 11.23225279 -5.07515796 5.60523001 0 0 Z " fill="#FEE9E2" transform="translate(327,976)"/>
<path d="M0 0 C2.475 0.99 2.475 0.99 5 2 C3.98823563 5.40320742 3.35156418 6.75725331 0.375 8.8125 C-0.40875 9.204375 -1.1925 9.59625 -2 10 C-2 9.34 -2 8.68 -2 8 C-2.66 8 -3.32 8 -4 8 C-2.66666667 5.33333333 -1.33333333 2.66666667 0 0 Z " fill="#514746" transform="translate(909,1020)"/>
<path d="M0 0 C0.66 0.33 1.32 0.66 2 1 C1.43410156 1.39832031 0.86820313 1.79664063 0.28515625 2.20703125 C-0.44832031 2.73683594 -1.18179688 3.26664063 -1.9375 3.8125 C-2.66839844 4.33457031 -3.39929688 4.85664062 -4.15234375 5.39453125 C-6.26883226 6.95867127 -6.26883226 6.95867127 -7 10 C-7.99 10.495 -7.99 10.495 -9 11 C-10.12224855 12.88013106 -10.12224855 12.88013106 -11.125 15.0625 C-11.47820312 15.79597656 -11.83140625 16.52945313 -12.1953125 17.28515625 C-12.59363281 18.13400391 -12.59363281 18.13400391 -13 19 C-13.66 19 -14.32 19 -15 19 C-12.81472573 10.25890292 -7.38746843 4.7279798 0 0 Z " fill="#6DA0C6" transform="translate(110,965)"/>
<path d="M0 0 C2.31 0.66 4.62 1.32 7 2 C7 1.34 7 0.68 7 0 C7.66 0 8.32 0 9 0 C9 2.31 9 4.62 9 7 C11.97 7.495 11.97 7.495 15 8 C14.67 8.66 14.34 9.32 14 10 C8.03868848 8.65870491 4.19807984 5.25135496 0 1 C0 0.67 0 0.34 0 0 Z " fill="#D34633" transform="translate(293,746)"/>
<path d="M0 0 C1.9375 0.6875 1.9375 0.6875 4 2 C5.09809194 5.29427581 5.11196276 6.66411172 4 10 C2.53515625 8.76302083 1.0703125 7.52604167 -0.39453125 6.2890625 C-1.8655046 5.10798901 -3.43037794 4.04641471 -5 3 C-3.35 2.67 -1.7 2.34 0 2 C0 1.34 0 0.68 0 0 Z " fill="#574D4C" transform="translate(1078,991)"/>
<path d="M0 0 C2 2 2 2 2.265625 5.16015625 C2.20871327 19.37386018 2.20871327 19.37386018 0 26 C-2.125 28.0625 -2.125 28.0625 -4 29 C-3.566875 27.7625 -3.566875 27.7625 -3.125 26.5 C-2.75375 25.345 -2.3825 24.19 -2 23 C-1.62875 21.865625 -1.2575 20.73125 -0.875 19.5625 C0.71024071 13.23392185 0.15186103 6.47940389 0 0 Z " fill="#FEE5DB" transform="translate(350,715)"/>
<path d="M0 0 C0 0.66 0 1.32 0 2 C-0.66 2.66 -1.32 3.32 -2 4 C-2.598125 4.763125 -3.19625 5.52625 -3.8125 6.3125 C-6 9 -6 9 -8.6875 11.625 C-11.19296794 13.85348846 -11.19296794 13.85348846 -12 17 C-12.66 17 -13.32 17 -14 17 C-12.67288846 13.26295953 -11.03431904 10.46876061 -8.5625 7.375 C-7.96566406 6.61960937 -7.36882812 5.86421875 -6.75390625 5.0859375 C-2.47752809 0 -2.47752809 0 0 0 Z " fill="#3CA748" transform="translate(205,954)"/>
<path d="M0 0 C0.66 0.33 1.32 0.66 2 1 C2 2.65 2 4.3 2 6 C0.9171875 6.4021875 0.9171875 6.4021875 -0.1875 6.8125 C-2.97590126 7.98982498 -5.44095724 9.39145884 -8 11 C-6.52670958 5.99081256 -3.72484762 3.48192278 0 0 Z " fill="#554A49" transform="translate(499,694)"/>
<path d="M0 0 C4.54133468 4.97384274 6.1875 11.46326477 6.1875 18.0625 C6.125625 19.361875 6.06375 20.66125 6 22 C5.67 22 5.34 22 5 22 C4.34895849 19.64716625 3.70407878 17.29291551 3.0625 14.9375 C2.88009766 14.28072266 2.69769531 13.62394531 2.50976562 12.94726562 C1.34310351 8.6412218 0.54707195 4.42840346 0 0 Z " fill="#46AB4F" transform="translate(284,971)"/>
<path d="M0 0 C4.80445914 5.64001725 4.29348179 11.92257376 4 19 C3.72295572 21.00857103 3.41770428 23.01590468 3 25 C2.67 25 2.34 25 2 25 C2.02320313 24.20335937 2.04640625 23.40671875 2.0703125 22.5859375 C2.16756075 16.87607602 2.00704731 12.39393964 0 7 C-0.07522969 4.66787973 -0.09325876 2.3314689 0 0 Z " fill="#CB4B38" transform="translate(347,711)"/>
<path d="M0 0 C0 0.66 0 1.32 0 2 C-0.78375 2.4125 -1.5675 2.825 -2.375 3.25 C-5.6733333 5.44888887 -6.07871568 7.23110958 -7 11 C-8.65 11 -10.3 11 -12 11 C-10.82612037 6.01101158 -7.81687611 4.01341878 -3.875 1.13671875 C-2 0 -2 0 0 0 Z " fill="#5A504F" transform="translate(1060,989)"/>
<path d="M0 0 C1.39702148 0.00966797 1.39702148 0.00966797 2.82226562 0.01953125 C3.78197266 0.03628906 4.74167969 0.05304687 5.73046875 0.0703125 C6.70951172 0.07933594 7.68855469 0.08835937 8.69726562 0.09765625 C11.10441936 0.12114068 13.51106618 0.1539841 15.91796875 0.1953125 C15.91796875 0.5253125 15.91796875 0.8553125 15.91796875 1.1953125 C14.96277344 1.24429688 14.00757813 1.29328125 13.0234375 1.34375 C5.17981246 1.79731954 -2.37994768 2.54600978 -10.08203125 4.1953125 C-10.08203125 3.5353125 -10.08203125 2.8753125 -10.08203125 2.1953125 C-6.56375497 0.60285855 -3.85505773 -0.04730132 0 0 Z " fill="#FEF2D2" transform="translate(195.08203125,662.8046875)"/>
<path d="M0 0 C2.64 0 5.28 0 8 0 C8 1.32 8 2.64 8 4 C4.7 4 1.4 4 -2 4 C-2 3.34 -2 2.68 -2 2 C-1.34 2 -0.68 2 0 2 C0 1.34 0 0.68 0 0 Z " fill="#4D3F40" transform="translate(860,1027)"/>
<path d="M0 0 C1.65 0 3.3 0 5 0 C5 1.98 5 3.96 5 6 C3.02 6 1.04 6 -1 6 C-1 2 -1 2 0 0 Z " fill="#544948" transform="translate(1116,988)"/>
<path d="M0 0 C-1 1 -1 1 -4.75 1.375 C-8.54148722 1.792535 -10.74441523 2.99656322 -14 5 C-17.8125 5.6875 -17.8125 5.6875 -21 6 C-16.19368318 0.67287486 -6.90541662 -2.39033652 0 0 Z " fill="#32A13E" transform="translate(232,944)"/>
<path d="M0 0 C2.9882675 2.58323124 4.49429547 5.55535237 6.25 9.0625 C7.06210937 10.65771484 7.06210937 10.65771484 7.890625 12.28515625 C8.25671875 13.18105469 8.6228125 14.07695313 9 15 C8.67 15.66 8.34 16.32 8 17 C5.05506563 15.52753282 4.48818591 13.97637182 3 11 C1.87474205 7.36337089 0.91248352 3.69523469 0 0 Z " fill="#CF4331" transform="translate(343,864)"/>
<path d="M0 0 C-1.07401108 2.91517292 -1.77810176 4.77810176 -4 7 C-4.66 6.67 -5.32 6.34 -6 6 C-6 5.01 -6 4.02 -6 3 C-6.66 2.34 -7.32 1.68 -8 1 C-4.93251126 -0.86240388 -3.40254489 -1.2151946 0 0 Z " fill="#574C4B" transform="translate(532,999)"/>
<path d="M0 0 C0.33 0 0.66 0 1 0 C0.98839844 1.07121094 0.97679687 2.14242187 0.96484375 3.24609375 C0.95546701 4.64322743 0.94636669 6.04036299 0.9375 7.4375 C0.92912109 8.14455078 0.92074219 8.85160156 0.91210938 9.58007812 C0.90346412 11.38693559 0.94779989 13.19387603 1 15 C1.33 15.33 1.66 15.66 2 16 C2.14115161 18.67058851 2.04247107 21.32432238 2 24 C-1.03610976 19.44583535 -1.15527445 15.79802792 -1.125 10.5 C-1.12886719 9.82324219 -1.13273437 9.14648438 -1.13671875 8.44921875 C-1.13062416 5.35926233 -0.9844023 2.95320689 0 0 Z " fill="#CC4B38" transform="translate(287,715)"/>
<path d="M0 0 C0.99 0.33 1.98 0.66 3 1 C1.90344712 2.31886772 0.79746577 3.62990057 -0.3125 4.9375 C-0.92738281 5.66839844 -1.54226562 6.39929688 -2.17578125 7.15234375 C-4 9 -4 9 -7 10 C-7.33 8.35 -7.66 6.7 -8 5 C-5.525 5.495 -5.525 5.495 -3 6 C-3 5.01 -3 4.02 -3 3 C-2.01 3 -1.02 3 0 3 C0 2.01 0 1.02 0 0 Z " fill="#E99F32" transform="translate(243,748)"/>
<path d="M0 0 C2.70383855 0.36363989 3.79664344 0.77806989 5.66796875 2.8203125 C8.84716793 7.64223414 10.75285533 11.19210022 11 17 C8.70988152 13.56482228 6.63195099 10.02809081 4.53515625 6.47265625 C3.13026213 4.20981152 1.63348994 2.10159452 0 0 Z " fill="#E2F7FD" transform="translate(147,968)"/>
<path d="M0 0 C1.98 0.66 3.96 1.32 6 2 C6.33 4.97 6.66 7.94 7 11 C4.04250209 7.53258866 1.92151848 4.13126473 0 0 Z " fill="#D13F28" transform="translate(294,884)"/>
<path d="M0 0 C5 3.33333333 10 6.66666667 15 10 C14.01 10.33 13.02 10.66 12 11 C10.30327614 9.70513179 8.6396721 8.36639342 7 7 C6.113125 6.690625 5.22625 6.38125 4.3125 6.0625 C2 5 2 5 0.85546875 2.43359375 C0.57316406 1.63050781 0.29085937 0.82742188 0 0 Z " fill="#FDE6DB" transform="translate(203,801)"/>
<path d="M0 0 C1.98 0.66 3.96 1.32 6 2 C3.24479785 4.95929119 0.53372712 7.03681826 -3 9 C-2.30058404 5.85262818 -1.23921302 2.97411124 0 0 Z " fill="#E7FBE9" transform="translate(203,948)"/>
<path d="M0 0 C4.21814817 3.9700218 7.61227103 8.30840284 11 13 C10.67 13.66 10.34 14.32 10 15 C9 14 8 13 7 12 C6.34 11.401875 5.68 10.80375 5 10.1875 C2.36708327 7.30774733 0 4.0190661 0 0 Z " fill="#71A2C8" transform="translate(265,891)"/>
<path d="M0 0 C2.38224928 2.38224928 2.32017149 3.0502037 2.375 6.3125 C2.40335937 7.07175781 2.43171875 7.83101562 2.4609375 8.61328125 C2 11 2 11 -2 16 C-1.34 10.72 -0.68 5.44 0 0 Z " fill="#FCD8CC" transform="translate(355,912)"/>
<path d="M0 0 C0.33 0 0.66 0 1 0 C1.25729264 7.07554765 1.01984912 13.97022631 -3 20 C-3.66 20 -4.32 20 -5 20 C-4.80664062 19.39414062 -4.61328125 18.78828125 -4.4140625 18.1640625 C-2.54867496 12.16157783 -1.11840293 6.1841103 0 0 Z " fill="#FDEECA" transform="translate(256,722)"/>
<path d="M0 0 C3.5742977 0.32493615 5.55712453 0.63870686 8.375 2.9375 C10 5 10 5 10 7 C6.12697862 5.85569823 2.99736561 4.76679902 0 2 C0 1.34 0 0.68 0 0 Z " fill="#37A542" transform="translate(205,1035)"/>
<path d="M0 0 C1.65 0 3.3 0 5 0 C5 1.98 5 3.96 5 6 C3.02 6 1.04 6 -1 6 C-0.34 5.01 0.32 4.02 1 3 C0.67 2.01 0.34 1.02 0 0 Z " fill="#58504F" transform="translate(749,988)"/>
<path d="M0 0 C1.32 0.33 2.64 0.66 4 1 C3.02501855 2.5027237 2.04490611 4.00211963 1.0625 5.5 C0.51722656 6.3353125 -0.02804687 7.170625 -0.58984375 8.03125 C-1.05519531 8.6809375 -1.52054687 9.330625 -2 10 C-2.33 10 -2.66 10 -3 10 C-3.36629408 5.72656908 -2.40814077 3.51187196 0 0 Z " fill="#D03C29" transform="translate(334,961)"/>
<path d="M0 0 C-0.33 2.64 -0.66 5.28 -1 8 C-3.31 6.02 -5.62 4.04 -8 2 C-5.3685612 0.6842806 -2.94885691 0 0 0 Z " fill="#D33E2A" transform="translate(272,848)"/>
<path d="M0 0 C0 0.99 0 1.98 0 3 C-0.66 3 -1.32 3 -2 3 C-1.67 3.99 -1.34 4.98 -1 6 C-3.97 5.01 -6.94 4.02 -10 3 C-10 2.67 -10 2.34 -10 2 C-8.7090864 1.66376204 -7.41723903 1.33110751 -6.125 1 C-5.40570313 0.814375 -4.68640625 0.62875 -3.9453125 0.4375 C-2 0 -2 0 0 0 Z " fill="#ED9C2E" transform="translate(190,761)"/>
<path d="M0 0 C0.33 1.32 0.66 2.64 1 4 C0.34 4 -0.32 4 -1 4 C-1.061875 4.556875 -1.12375 5.11375 -1.1875 5.6875 C-2.33373872 8.94987173 -4.49390197 10.68667874 -7 13 C-7.66 12.67 -8.32 12.34 -9 12 C-8.60167969 11.55269531 -8.20335937 11.10539062 -7.79296875 10.64453125 C-4.82015875 7.25220061 -2.1717806 3.98159776 0 0 Z " fill="#D8F9DB" transform="translate(284,1019)"/>
<path d="M0 0 C1.98 0.66 3.96 1.32 6 2 C6.33 4.64 6.66 7.28 7 10 C3.66442368 7.0094833 1.84916079 4.06815373 0 0 Z " fill="#32A43E" transform="translate(190,1018)"/>
<path d="M0 0 C10.74259681 5.0022779 10.74259681 5.0022779 14 9 C12.948125 8.566875 12.948125 8.566875 11.875 8.125 C8.94547497 6.97866412 5.99078347 5.97374346 3 5 C3 4.34 3 3.68 3 3 C2.01 2.67 1.02 2.34 0 2 C0 1.34 0 0.68 0 0 Z " fill="#CA422E" transform="translate(303,830)"/>
<path d="M0 0 C0.66 0.33 1.32 0.66 2 1 C0.8141763 4.37503669 -0.27573689 6.64722731 -3 9 C-3.33 7.02 -3.66 5.04 -4 3 C-3.01 2.67 -2.02 2.34 -1 2 C-0.67 1.34 -0.34 0.68 0 0 Z " fill="#554B49" transform="translate(589,763)"/>
<path d="M0 0 C0.33 0.66 0.66 1.32 1 2 C0 5 0 5 -3 7 C-3.144375 7.66 -3.28875 8.32 -3.4375 9 C-4 11 -4 11 -6.0625 12.25 C-6.701875 12.4975 -7.34125 12.745 -8 13 C-6.40956621 7.91061189 -3.2553049 4.12543357 0 0 Z " fill="#E59D3C" transform="translate(165,681)"/>
<path d="M0 0 C0.99 0 1.98 0 3 0 C3.5625 1.9375 3.5625 1.9375 4 4 C3 5 3 5 -0.5625 5.0625 C-1.696875 5.041875 -2.83125 5.02125 -4 5 C-3 3 -3 3 0 2 C0 1.34 0 0.68 0 0 Z " fill="#4B403E" transform="translate(569,1027)"/>
<path d="M0 0 C0.66 0.33 1.32 0.66 2 1 C-1.63 4.3 -5.26 7.6 -9 11 C-9.66 10.67 -10.32 10.34 -11 10 C-3.70159453 2.51708428 -3.70159453 2.51708428 0 0 Z " fill="#605756" transform="translate(698,827)"/>
<path d="M0 0 C4.40114397 0.50298788 6.71195019 2.08772731 10 5 C7.69 5 5.38 5 3 5 C3 4.01 3 3.02 3 2 C2.01 2 1.02 2 0 2 C0 1.34 0 0.68 0 0 Z " fill="#CF3E27" transform="translate(328,695)"/>
<path d="M0 0 C1.65 0 3.3 0 5 0 C5 1.32 5 2.64 5 4 C2.69 4 0.38 4 -2 4 C-1.34 2.68 -0.68 1.36 0 0 Z " fill="#4D3F3F" transform="translate(1147,1027)"/>
<path d="M0 0 C1.27310312 0.93441535 2.543388 1.87267111 3.8125 2.8125 C4.52019531 3.33457031 5.22789062 3.85664062 5.95703125 4.39453125 C7.78531393 5.83128877 9.39896688 7.31815763 11 9 C10.236875 8.690625 9.47375 8.38125 8.6875 8.0625 C6.81210323 7.32106407 4.91315348 6.63771783 3 6 C3 5.34 3 4.68 3 4 C2.01 3.67 1.02 3.34 0 3 C0 2.01 0 1.02 0 0 Z " fill="#699DC4" transform="translate(217,848)"/>
<path d="M0 0 C2.31 1.98 4.62 3.96 7 6 C6.67 7.65 6.34 9.3 6 11 C2.90407165 7.4912812 1.25805377 4.50802601 0 0 Z " fill="#659FC9" transform="translate(93,840)"/>
<path d="M0 0 C0.99 0.33 1.98 0.66 3 1 C-0.3 3.31 -3.6 5.62 -7 8 C-7 7.01 -7 6.02 -7 5 C-5.68 4.67 -4.36 4.34 -3 4 C-3 3.34 -3 2.68 -3 2 C-2.01 1.34 -1.02 0.68 0 0 Z " fill="#32A141" transform="translate(269,1034)"/>
<path d="M0 0 C0.33 0 0.66 0 1 0 C2.61050328 10.15317287 2.61050328 10.15317287 0.0625 13.6875 C-0.618125 14.120625 -1.29875 14.55375 -2 15 C-2.66 14.67 -3.32 14.34 -4 14 C-3.525625 13.360625 -3.05125 12.72125 -2.5625 12.0625 C-0.52968613 8.07818481 -0.2789471 4.41505926 0 0 Z " fill="#6D6262" transform="translate(1084,1007)"/>
<path d="M0 0 C1.75 0.125 1.75 0.125 4 1 C6.3125 3.875 6.3125 3.875 8 7 C7.67 7.99 7.34 8.98 7 10 C6.01886757 8.70982586 5.04015801 7.41780894 4.0625 6.125 C3.24458984 5.04605469 3.24458984 5.04605469 2.41015625 3.9453125 C1 2 1 2 0 0 Z " fill="#E4FCE4" transform="translate(274,956)"/>
<path d="M0 0 C1.98 0.99 3.96 1.98 6 3 C4 5 4 5 0.375 5.125 C-0.73875 5.08375 -1.8525 5.0425 -3 5 C-2.01 3.35 -1.02 1.7 0 0 Z " fill="#5F5655" transform="translate(760,896)"/>
<path d="M0 0 C2.97 0.495 2.97 0.495 6 1 C5.34 2.32 4.68 3.64 4 5 C2.68 4.67 1.36 4.34 0 4 C0 2.68 0 1.36 0 0 Z " fill="#534949" transform="translate(1124,707)"/>
<path d="M0 0 C2.95183101 2.95183101 3.08663988 5.95511947 4 10 C2.35 8.68 0.7 7.36 -1 6 C-0.67 4.02 -0.34 2.04 0 0 Z " fill="#75A3C6" transform="translate(285,923)"/>
<path d="M0 0 C1.29608947 0.93137592 2.58671632 1.8703566 3.875 2.8125 C4.59429687 3.33457031 5.31359375 3.85664062 6.0546875 4.39453125 C8 6 8 6 10 9 C5.06789169 7.76697292 2.78225429 6.28039122 0 2 C0 1.34 0 0.68 0 0 Z " fill="#679DC6" transform="translate(241,868)"/>
<path d="M0 0 C0.66 0 1.32 0 2 0 C2 0.99 2 1.98 2 3 C2.99 3.33 3.98 3.66 5 4 C5.33 6.97 5.66 9.94 6 13 C4.1727089 10.25906335 3.06301822 7.86174676 1.875 4.8125 C1.52179688 3.91144531 1.16859375 3.01039063 0.8046875 2.08203125 C0.53914063 1.39496094 0.27359375 0.70789063 0 0 Z " fill="#FDE2DA" transform="translate(347,869)"/>
<path d="M0 0 C0.66 0 1.32 0 2 0 C1.67 2.64 1.34 5.28 1 8 C-0.98 6.35 -2.96 4.7 -5 3 C-4.360625 2.87625 -3.72125 2.7525 -3.0625 2.625 C-2.0415625 2.315625 -2.0415625 2.315625 -1 2 C-0.67 1.34 -0.34 0.68 0 0 Z " fill="#D03D27" transform="translate(278,856)"/>
<path d="M0 0 C3.36591866 1.44253657 5.51047079 3.33264727 8 6 C6.35 6 4.7 6 3 6 C3 5.01 3 4.02 3 3 C2.01 3 1.02 3 0 3 C0 2.01 0 1.02 0 0 Z " fill="#FEEDE2" transform="translate(233,824)"/>
<path d="M0 0 C0.66 0.99 1.32 1.98 2 3 C1.67 3.66 1.34 4.32 1 5 C1.66 5.33 2.32 5.66 3 6 C1.68 6.99 0.36 7.98 -1 9 C-0.67 6.03 -0.34 3.06 0 0 Z M3 0 C3.66 0.66 4.32 1.32 5 2 C4.01 1.67 3.02 1.34 2 1 C2.33 0.67 2.66 0.34 3 0 Z " fill="#C94E3B" transform="translate(312,984)"/>
<path d="M0 0 C0.66 0.66 1.32 1.32 2 2 C0.02 4.64 -1.96 7.28 -4 10 C-4.33 8.68 -4.66 7.36 -5 6 C-4.01 5.67 -3.02 5.34 -2 5 C-1.33820153 3.01954441 -1.33820153 3.01954441 -1 1 C-0.67 0.67 -0.34 0.34 0 0 Z " fill="#E1FAE3" transform="translate(198,956)"/>
<path d="M0 0 C3.36591866 1.44253657 5.51047079 3.33264727 8 6 C5.69 5.67 3.38 5.34 1 5 C0.67 3.35 0.34 1.7 0 0 Z " fill="#33A540" transform="translate(266,951)"/>
<path d="M0 0 C3.19199167 2.41556126 5.74716687 4.68003538 8 8 C7.67 8.66 7.34 9.32 7 10 C2.78577758 7.11658466 1.23924145 4.95696581 0 0 Z " fill="#CE4837" transform="translate(335,854)"/>
<path d="M0 0 C3.63 0.33 7.26 0.66 11 1 C11 1.33 11 1.66 11 2 C7.37 2.33 3.74 2.66 0 3 C0 2.01 0 1.02 0 0 Z " fill="#504544" transform="translate(1060,1026)"/>
<path d="M0 0 C0.66 0.66 1.32 1.32 2 2 C-0.68841859 4.25245881 -2.64641875 5.88213958 -6 7 C-4.52307692 2.32307692 -4.52307692 2.32307692 -1.875 0.6875 C-1.25625 0.460625 -0.6375 0.23375 0 0 Z " fill="#E8F6FC" transform="translate(157,1009)"/>
<path d="M0 0 C1.31223496 3.93670488 0.24296256 6.12488144 -1 10 C-1.33 10 -1.66 10 -2 10 C-2.33 7.03 -2.66 4.06 -3 1 C-2.01 0.67 -1.02 0.34 0 0 Z " fill="#E8FCE9" transform="translate(187,975)"/>
<path d="M0 0 C0.33 0.66 0.66 1.32 1 2 C-1.31 4.64 -3.62 7.28 -6 10 C-6 6.41087588 -5.33563446 5.89142971 -3 3.3125 C-2.443125 2.68988281 -1.88625 2.06726563 -1.3125 1.42578125 C-0.879375 0.95527344 -0.44625 0.48476563 0 0 Z " fill="#71A3C9" transform="translate(112,736)"/>
<path d="M0 0 C-1.29009643 0.50403768 -2.58213789 1.00309926 -3.875 1.5 C-4.95394531 1.91765625 -4.95394531 1.91765625 -6.0546875 2.34375 C-8 3 -8 3 -10 3 C-9.67 2.01 -9.34 1.02 -9 0 C-3.375 -1.125 -3.375 -1.125 0 0 Z " fill="#40A549" transform="translate(260,1043)"/>
<path d="M0 0 C2.475 0.495 2.475 0.495 5 1 C5.33 2.32 5.66 3.64 6 5 C5.01 5.33 4.02 5.66 3 6 C2.01 4.02 1.02 2.04 0 0 Z " fill="#5F9CCA" transform="translate(97,1008)"/>
<path d="M0 0 C2.83374881 3.20336822 3.5205537 5.78087253 4 10 C1.2027092 7.93243723 0.97307727 6.85559629 0.3125 3.3125 C0.209375 2.219375 0.10625 1.12625 0 0 Z " fill="#3DA846" transform="translate(284,971)"/>
<path d="M0 0 C3 1.8125 3 1.8125 6 4 C6 4.99 6 5.98 6 7 C3.00675737 5.9024777 2.15389099 5.32317108 0.75 2.375 C0.5025 1.59125 0.255 0.8075 0 0 Z " fill="#679DC5" transform="translate(234,862)"/>
<path d="M0 0 C0.66 0.33 1.32 0.66 2 1 C0.02 2.32 -1.96 3.64 -4 5 C-3.6875 3.0625 -3.6875 3.0625 -3 1 C-2.01 0.67 -1.02 0.34 0 0 Z M-7 5 C-6.01 5.33 -5.02 5.66 -4 6 C-4.66 6.66 -5.32 7.32 -6 8 C-6.33 7.01 -6.66 6.02 -7 5 Z " fill="#D5442F" transform="translate(308,694)"/>
<path d="M0 0 C2.0625 0.4375 2.0625 0.4375 4 1 C1.03 3.475 1.03 3.475 -2 6 C-1.125 1.125 -1.125 1.125 0 0 Z " fill="#FEF3D2" transform="translate(166,676)"/>
<path d="M0 0 C0.99 0.33 1.98 0.66 3 1 C3 1.66 3 2.32 3 3 C4.65 3 6.3 3 8 3 C8 3.33 8 3.66 8 4 C0.57142857 4.28571429 0.57142857 4.28571429 -3 2 C-2.01 2 -1.02 2 0 2 C0 1.34 0 0.68 0 0 Z " fill="#7B7271" transform="translate(562,1029)"/>
<path d="M0 0 C0.99 0.33 1.98 0.66 3 1 C1.35 2.65 -0.3 4.3 -2 6 C-2.33 5.01 -2.66 4.02 -3 3 C-2.01 2.01 -1.02 1.02 0 0 Z " fill="#CF3C27" transform="translate(327,972)"/>
<path d="M0 0 C0.99 0 1.98 0 3 0 C2.34 1.65 1.68 3.3 1 5 C0.01 5 -0.98 5 -2 5 C-2 4.01 -2 3.02 -2 2 C-1.34 2 -0.68 2 0 2 C0 1.34 0 0.68 0 0 Z " fill="#554D4B" transform="translate(1237,915)"/>
<path d="M0 0 C2.31 1.98 4.62 3.96 7 6 C6.34 6.66 5.68 7.32 5 8 C4.67 7.34 4.34 6.68 4 6 C3.01 5.67 2.02 5.34 1 5 C0.67 3.35 0.34 1.7 0 0 Z " fill="#699EC5" transform="translate(258,884)"/>
<path d="M0 0 C2.64 0.33 5.28 0.66 8 1 C7.01 2.485 7.01 2.485 6 4 C1.125 2.25 1.125 2.25 0 0 Z " fill="#C4544A" transform="translate(201,799)"/>
<path d="M0 0 C0.66 0.33 1.32 0.66 2 1 C0.8125 3 0.8125 3 -1 5 C-3.6875 5.25 -3.6875 5.25 -6 5 C-5.195625 4.360625 -4.39125 3.72125 -3.5625 3.0625 C-1.7249496 1.59396498 -1.7249496 1.59396498 0 0 Z " fill="#FDEFD0" transform="translate(236,758)"/>
<path d="M0 0 C0.33 0 0.66 0 1 0 C1.625 2.8125 1.625 2.8125 2 6 C1.01 7.485 1.01 7.485 0 9 C-0.66 9 -1.32 9 -2 9 C-1.34 6.03 -0.68 3.06 0 0 Z " fill="#655A59" transform="translate(1393,724)"/>
<path d="M0 0 C0 3.61029169 -0.96092582 6.55806676 -2 10 C-2.66 9.01 -3.32 8.02 -4 7 C-3.1025444 3.93369336 -2.26961192 2.26961192 0 0 Z " fill="#554948" transform="translate(1350,721)"/>
</svg>
